ISO-10303-21;
HEADER;
/* Generated by software containing ST-Developer
 * from STEP Tools, Inc. (www.steptools.com) 
 */

FILE_DESCRIPTION(
/* description */ (''),
/* implementation_level */ '2;1');

FILE_NAME(
/* name */ 'MultiPass0V_outsideIn-DFMOD.stp',
/* time_stamp */ '2025-08-09T14:40:29-05:00',
/* author */ ('farin012'),
/* organization */ (''),
/* preprocessor_version */ 'ST-DEVELOPER v20.1',
/* originating_system */ 'Autodesk Inventor 2026',
/* authorisation */ '');

FILE_SCHEMA (('AUTOMOTIVE_DESIGN { 1 0 10303 214 3 1 1 }'));
ENDSEC;

DATA;
#10=MECHANICAL_DESIGN_GEOMETRIC_PRESENTATION_REPRESENTATION('',(#211,#212,
#213,#214,#215,#216,#217,#218,#219,#220,#221,#222,#223,#224,#225,#226,#227,
#228,#229,#230,#231,#232,#233,#234,#235,#236,#237,#238,#239,#240,#241,#242,
#243,#244,#245,#246,#247,#248),#1290);
#11=ITEM_DEFINED_TRANSFORMATION($,$,#830,#893);
#12=ITEM_DEFINED_TRANSFORMATION($,$,#830,#894);
#13=ITEM_DEFINED_TRANSFORMATION($,$,#887,#895);
#14=ITEM_DEFINED_TRANSFORMATION($,$,#838,#896);
#15=ITEM_DEFINED_TRANSFORMATION($,$,#838,#897);
#16=ITEM_DEFINED_TRANSFORMATION($,$,#838,#898);
#17=ITEM_DEFINED_TRANSFORMATION($,$,#838,#899);
#18=ITEM_DEFINED_TRANSFORMATION($,$,#857,#900);
#19=ITEM_DEFINED_TRANSFORMATION($,$,#857,#901);
#20=ITEM_DEFINED_TRANSFORMATION($,$,#887,#902);
#21=ITEM_DEFINED_TRANSFORMATION($,$,#887,#903);
#22=ITEM_DEFINED_TRANSFORMATION($,$,#851,#904);
#23=ITEM_DEFINED_TRANSFORMATION($,$,#887,#905);
#24=ITEM_DEFINED_TRANSFORMATION($,$,#887,#906);
#25=ITEM_DEFINED_TRANSFORMATION($,$,#857,#907);
#26=ITEM_DEFINED_TRANSFORMATION($,$,#869,#908);
#27=ITEM_DEFINED_TRANSFORMATION($,$,#887,#909);
#28=ITEM_DEFINED_TRANSFORMATION($,$,#887,#910);
#29=ITEM_DEFINED_TRANSFORMATION($,$,#863,#911);
#30=ITEM_DEFINED_TRANSFORMATION($,$,#887,#912);
#31=ITEM_DEFINED_TRANSFORMATION($,$,#887,#913);
#32=ITEM_DEFINED_TRANSFORMATION($,$,#869,#914);
#33=ITEM_DEFINED_TRANSFORMATION($,$,#869,#915);
#34=ITEM_DEFINED_TRANSFORMATION($,$,#887,#916);
#35=ITEM_DEFINED_TRANSFORMATION($,$,#887,#917);
#36=ITEM_DEFINED_TRANSFORMATION($,$,#863,#918);
#37=ITEM_DEFINED_TRANSFORMATION($,$,#887,#919);
#38=ITEM_DEFINED_TRANSFORMATION($,$,#887,#920);
#39=ITEM_DEFINED_TRANSFORMATION($,$,#869,#921);
#40=ITEM_DEFINED_TRANSFORMATION($,$,#875,#922);
#41=ITEM_DEFINED_TRANSFORMATION($,$,#887,#923);
#42=ITEM_DEFINED_TRANSFORMATION($,$,#887,#924);
#43=ITEM_DEFINED_TRANSFORMATION($,$,#881,#925);
#44=ITEM_DEFINED_TRANSFORMATION($,$,#887,#926);
#45=(
REPRESENTATION_RELATIONSHIP($,$,#1350,#1349)
REPRESENTATION_RELATIONSHIP_WITH_TRANSFORMATION(#11)
SHAPE_REPRESENTATION_RELATIONSHIP()
);
#46=(
REPRESENTATION_RELATIONSHIP($,$,#1350,#1349)
REPRESENTATION_RELATIONSHIP_WITH_TRANSFORMATION(#12)
SHAPE_REPRESENTATION_RELATIONSHIP()
);
#47=(
REPRESENTATION_RELATIONSHIP($,$,#1358,#1349)
REPRESENTATION_RELATIONSHIP_WITH_TRANSFORMATION(#13)
SHAPE_REPRESENTATION_RELATIONSHIP()
);
#48=(
REPRESENTATION_RELATIONSHIP($,$,#1351,#1349)
REPRESENTATION_RELATIONSHIP_WITH_TRANSFORMATION(#14)
SHAPE_REPRESENTATION_RELATIONSHIP()
);
#49=(
REPRESENTATION_RELATIONSHIP($,$,#1351,#1349)
REPRESENTATION_RELATIONSHIP_WITH_TRANSFORMATION(#15)
SHAPE_REPRESENTATION_RELATIONSHIP()
);
#50=(
REPRESENTATION_RELATIONSHIP($,$,#1351,#1349)
REPRESENTATION_RELATIONSHIP_WITH_TRANSFORMATION(#16)
SHAPE_REPRESENTATION_RELATIONSHIP()
);
#51=(
REPRESENTATION_RELATIONSHIP($,$,#1351,#1349)
REPRESENTATION_RELATIONSHIP_WITH_TRANSFORMATION(#17)
SHAPE_REPRESENTATION_RELATIONSHIP()
);
#52=(
REPRESENTATION_RELATIONSHIP($,$,#1353,#1349)
REPRESENTATION_RELATIONSHIP_WITH_TRANSFORMATION(#18)
SHAPE_REPRESENTATION_RELATIONSHIP()
);
#53=(
REPRESENTATION_RELATIONSHIP($,$,#1353,#1349)
REPRESENTATION_RELATIONSHIP_WITH_TRANSFORMATION(#19)
SHAPE_REPRESENTATION_RELATIONSHIP()
);
#54=(
REPRESENTATION_RELATIONSHIP($,$,#1358,#1349)
REPRESENTATION_RELATIONSHIP_WITH_TRANSFORMATION(#20)
SHAPE_REPRESENTATION_RELATIONSHIP()
);
#55=(
REPRESENTATION_RELATIONSHIP($,$,#1358,#1349)
REPRESENTATION_RELATIONSHIP_WITH_TRANSFORMATION(#21)
SHAPE_REPRESENTATION_RELATIONSHIP()
);
#56=(
REPRESENTATION_RELATIONSHIP($,$,#1352,#1349)
REPRESENTATION_RELATIONSHIP_WITH_TRANSFORMATION(#22)
SHAPE_REPRESENTATION_RELATIONSHIP()
);
#57=(
REPRESENTATION_RELATIONSHIP($,$,#1358,#1349)
REPRESENTATION_RELATIONSHIP_WITH_TRANSFORMATION(#23)
SHAPE_REPRESENTATION_RELATIONSHIP()
);
#58=(
REPRESENTATION_RELATIONSHIP($,$,#1358,#1349)
REPRESENTATION_RELATIONSHIP_WITH_TRANSFORMATION(#24)
SHAPE_REPRESENTATION_RELATIONSHIP()
);
#59=(
REPRESENTATION_RELATIONSHIP($,$,#1353,#1349)
REPRESENTATION_RELATIONSHIP_WITH_TRANSFORMATION(#25)
SHAPE_REPRESENTATION_RELATIONSHIP()
);
#60=(
REPRESENTATION_RELATIONSHIP($,$,#1355,#1349)
REPRESENTATION_RELATIONSHIP_WITH_TRANSFORMATION(#26)
SHAPE_REPRESENTATION_RELATIONSHIP()
);
#61=(
REPRESENTATION_RELATIONSHIP($,$,#1358,#1349)
REPRESENTATION_RELATIONSHIP_WITH_TRANSFORMATION(#27)
SHAPE_REPRESENTATION_RELATIONSHIP()
);
#62=(
REPRESENTATION_RELATIONSHIP($,$,#1358,#1349)
REPRESENTATION_RELATIONSHIP_WITH_TRANSFORMATION(#28)
SHAPE_REPRESENTATION_RELATIONSHIP()
);
#63=(
REPRESENTATION_RELATIONSHIP($,$,#1354,#1349)
REPRESENTATION_RELATIONSHIP_WITH_TRANSFORMATION(#29)
SHAPE_REPRESENTATION_RELATIONSHIP()
);
#64=(
REPRESENTATION_RELATIONSHIP($,$,#1358,#1349)
REPRESENTATION_RELATIONSHIP_WITH_TRANSFORMATION(#30)
SHAPE_REPRESENTATION_RELATIONSHIP()
);
#65=(
REPRESENTATION_RELATIONSHIP($,$,#1358,#1349)
REPRESENTATION_RELATIONSHIP_WITH_TRANSFORMATION(#31)
SHAPE_REPRESENTATION_RELATIONSHIP()
);
#66=(
REPRESENTATION_RELATIONSHIP($,$,#1355,#1349)
REPRESENTATION_RELATIONSHIP_WITH_TRANSFORMATION(#32)
SHAPE_REPRESENTATION_RELATIONSHIP()
);
#67=(
REPRESENTATION_RELATIONSHIP($,$,#1355,#1349)
REPRESENTATION_RELATIONSHIP_WITH_TRANSFORMATION(#33)
SHAPE_REPRESENTATION_RELATIONSHIP()
);
#68=(
REPRESENTATION_RELATIONSHIP($,$,#1358,#1349)
REPRESENTATION_RELATIONSHIP_WITH_TRANSFORMATION(#34)
SHAPE_REPRESENTATION_RELATIONSHIP()
);
#69=(
REPRESENTATION_RELATIONSHIP($,$,#1358,#1349)
REPRESENTATION_RELATIONSHIP_WITH_TRANSFORMATION(#35)
SHAPE_REPRESENTATION_RELATIONSHIP()
);
#70=(
REPRESENTATION_RELATIONSHIP($,$,#1354,#1349)
REPRESENTATION_RELATIONSHIP_WITH_TRANSFORMATION(#36)
SHAPE_REPRESENTATION_RELATIONSHIP()
);
#71=(
REPRESENTATION_RELATIONSHIP($,$,#1358,#1349)
REPRESENTATION_RELATIONSHIP_WITH_TRANSFORMATION(#37)
SHAPE_REPRESENTATION_RELATIONSHIP()
);
#72=(
REPRESENTATION_RELATIONSHIP($,$,#1358,#1349)
REPRESENTATION_RELATIONSHIP_WITH_TRANSFORMATION(#38)
SHAPE_REPRESENTATION_RELATIONSHIP()
);
#73=(
REPRESENTATION_RELATIONSHIP($,$,#1355,#1349)
REPRESENTATION_RELATIONSHIP_WITH_TRANSFORMATION(#39)
SHAPE_REPRESENTATION_RELATIONSHIP()
);
#74=(
REPRESENTATION_RELATIONSHIP($,$,#1356,#1349)
REPRESENTATION_RELATIONSHIP_WITH_TRANSFORMATION(#40)
SHAPE_REPRESENTATION_RELATIONSHIP()
);
#75=(
REPRESENTATION_RELATIONSHIP($,$,#1358,#1349)
REPRESENTATION_RELATIONSHIP_WITH_TRANSFORMATION(#41)
SHAPE_REPRESENTATION_RELATIONSHIP()
);
#76=(
REPRESENTATION_RELATIONSHIP($,$,#1358,#1349)
REPRESENTATION_RELATIONSHIP_WITH_TRANSFORMATION(#42)
SHAPE_REPRESENTATION_RELATIONSHIP()
);
#77=(
REPRESENTATION_RELATIONSHIP($,$,#1357,#1349)
REPRESENTATION_RELATIONSHIP_WITH_TRANSFORMATION(#43)
SHAPE_REPRESENTATION_RELATIONSHIP()
);
#78=(
REPRESENTATION_RELATIONSHIP($,$,#1358,#1349)
REPRESENTATION_RELATIONSHIP_WITH_TRANSFORMATION(#44)
SHAPE_REPRESENTATION_RELATIONSHIP()
);
#79=CONTEXT_DEPENDENT_SHAPE_REPRESENTATION(#45,#1315);
#80=CONTEXT_DEPENDENT_SHAPE_REPRESENTATION(#46,#1316);
#81=CONTEXT_DEPENDENT_SHAPE_REPRESENTATION(#47,#1317);
#82=CONTEXT_DEPENDENT_SHAPE_REPRESENTATION(#48,#1318);
#83=CONTEXT_DEPENDENT_SHAPE_REPRESENTATION(#49,#1319);
#84=CONTEXT_DEPENDENT_SHAPE_REPRESENTATION(#50,#1320);
#85=CONTEXT_DEPENDENT_SHAPE_REPRESENTATION(#51,#1321);
#86=CONTEXT_DEPENDENT_SHAPE_REPRESENTATION(#52,#1322);
#87=CONTEXT_DEPENDENT_SHAPE_REPRESENTATION(#53,#1323);
#88=CONTEXT_DEPENDENT_SHAPE_REPRESENTATION(#54,#1324);
#89=CONTEXT_DEPENDENT_SHAPE_REPRESENTATION(#55,#1325);
#90=CONTEXT_DEPENDENT_SHAPE_REPRESENTATION(#56,#1326);
#91=CONTEXT_DEPENDENT_SHAPE_REPRESENTATION(#57,#1327);
#92=CONTEXT_DEPENDENT_SHAPE_REPRESENTATION(#58,#1328);
#93=CONTEXT_DEPENDENT_SHAPE_REPRESENTATION(#59,#1329);
#94=CONTEXT_DEPENDENT_SHAPE_REPRESENTATION(#60,#1330);
#95=CONTEXT_DEPENDENT_SHAPE_REPRESENTATION(#61,#1331);
#96=CONTEXT_DEPENDENT_SHAPE_REPRESENTATION(#62,#1332);
#97=CONTEXT_DEPENDENT_SHAPE_REPRESENTATION(#63,#1333);
#98=CONTEXT_DEPENDENT_SHAPE_REPRESENTATION(#64,#1334);
#99=CONTEXT_DEPENDENT_SHAPE_REPRESENTATION(#65,#1335);
#100=CONTEXT_DEPENDENT_SHAPE_REPRESENTATION(#66,#1336);
#101=CONTEXT_DEPENDENT_SHAPE_REPRESENTATION(#67,#1337);
#102=CONTEXT_DEPENDENT_SHAPE_REPRESENTATION(#68,#1338);
#103=CONTEXT_DEPENDENT_SHAPE_REPRESENTATION(#69,#1339);
#104=CONTEXT_DEPENDENT_SHAPE_REPRESENTATION(#70,#1340);
#105=CONTEXT_DEPENDENT_SHAPE_REPRESENTATION(#71,#1341);
#106=CONTEXT_DEPENDENT_SHAPE_REPRESENTATION(#72,#1342);
#107=CONTEXT_DEPENDENT_SHAPE_REPRESENTATION(#73,#1343);
#108=CONTEXT_DEPENDENT_SHAPE_REPRESENTATION(#74,#1344);
#109=CONTEXT_DEPENDENT_SHAPE_REPRESENTATION(#75,#1345);
#110=CONTEXT_DEPENDENT_SHAPE_REPRESENTATION(#76,#1346);
#111=CONTEXT_DEPENDENT_SHAPE_REPRESENTATION(#77,#1347);
#112=CONTEXT_DEPENDENT_SHAPE_REPRESENTATION(#78,#1348);
#113=NEXT_ASSEMBLY_USAGE_OCCURRENCE('BB1-E02-Solidworks:1',
'BB1-E02-Solidworks:1','BB1-E02-Solidworks:1',#1360,#1361,
'BB1-E02-Solidworks:1');
#114=NEXT_ASSEMBLY_USAGE_OCCURRENCE('BB1-E02-Solidworks:2',
'BB1-E02-Solidworks:2','BB1-E02-Solidworks:2',#1360,#1361,
'BB1-E02-Solidworks:2');
#115=NEXT_ASSEMBLY_USAGE_OCCURRENCE('LaserBeamEntry2:16',
'LaserBeamEntry2:16','LaserBeamEntry2:16',#1360,#1369,
'LaserBeamEntry2:16');
#116=NEXT_ASSEMBLY_USAGE_OCCURRENCE('LA1608-AB-2LOOP_grid:1',
'LA1608-AB-2LOOP_grid:1','LA1608-AB-2LOOP_grid:1',#1360,#1362,
'LA1608-AB-2LOOP_grid:1');
#117=NEXT_ASSEMBLY_USAGE_OCCURRENCE('LA1608-AB-2LOOP_grid:2',
'LA1608-AB-2LOOP_grid:2','LA1608-AB-2LOOP_grid:2',#1360,#1362,
'LA1608-AB-2LOOP_grid:2');
#118=NEXT_ASSEMBLY_USAGE_OCCURRENCE('LA1608-AB-2LOOP_grid:3',
'LA1608-AB-2LOOP_grid:3','LA1608-AB-2LOOP_grid:3',#1360,#1362,
'LA1608-AB-2LOOP_grid:3');
#119=NEXT_ASSEMBLY_USAGE_OCCURRENCE('LA1608-AB-2LOOP_grid:4',
'LA1608-AB-2LOOP_grid:4','LA1608-AB-2LOOP_grid:4',#1360,#1362,
'LA1608-AB-2LOOP_grid:4');
#120=NEXT_ASSEMBLY_USAGE_OCCURRENCE('LOOP1_COLL:1','LOOP1_COLL:1',
'LOOP1_COLL:1',#1360,#1364,'LOOP1_COLL:1');
#121=NEXT_ASSEMBLY_USAGE_OCCURRENCE('LOOP1_COLL:2','LOOP1_COLL:2',
'LOOP1_COLL:2',#1360,#1364,'LOOP1_COLL:2');
#122=NEXT_ASSEMBLY_USAGE_OCCURRENCE('LaserBeamEntry2:17',
'LaserBeamEntry2:17','LaserBeamEntry2:17',#1360,#1369,
'LaserBeamEntry2:17');
#123=NEXT_ASSEMBLY_USAGE_OCCURRENCE('LaserBeamEntry2:18',
'LaserBeamEntry2:18','LaserBeamEntry2:18',#1360,#1369,
'LaserBeamEntry2:18');
#124=NEXT_ASSEMBLY_USAGE_OCCURRENCE('LOOP1_COLL_L:1','LOOP1_COLL_L:1',
'LOOP1_COLL_L:1',#1360,#1363,'LOOP1_COLL_L:1');
#125=NEXT_ASSEMBLY_USAGE_OCCURRENCE('LaserBeamEntry2:19',
'LaserBeamEntry2:19','LaserBeamEntry2:19',#1360,#1369,
'LaserBeamEntry2:19');
#126=NEXT_ASSEMBLY_USAGE_OCCURRENCE('LaserBeamEntry2:20',
'LaserBeamEntry2:20','LaserBeamEntry2:20',#1360,#1369,
'LaserBeamEntry2:20');
#127=NEXT_ASSEMBLY_USAGE_OCCURRENCE('LOOP1_COLL:3','LOOP1_COLL:3',
'LOOP1_COLL:3',#1360,#1364,'LOOP1_COLL:3');
#128=NEXT_ASSEMBLY_USAGE_OCCURRENCE('LOOP2_COLL:1','LOOP2_COLL:1',
'LOOP2_COLL:1',#1360,#1366,'LOOP2_COLL:1');
#129=NEXT_ASSEMBLY_USAGE_OCCURRENCE('LaserBeamEntry2:21',
'LaserBeamEntry2:21','LaserBeamEntry2:21',#1360,#1369,
'LaserBeamEntry2:21');
#130=NEXT_ASSEMBLY_USAGE_OCCURRENCE('LaserBeamEntry2:22',
'LaserBeamEntry2:22','LaserBeamEntry2:22',#1360,#1369,
'LaserBeamEntry2:22');
#131=NEXT_ASSEMBLY_USAGE_OCCURRENCE('LOOP2_COLL_L:1','LOOP2_COLL_L:1',
'LOOP2_COLL_L:1',#1360,#1365,'LOOP2_COLL_L:1');
#132=NEXT_ASSEMBLY_USAGE_OCCURRENCE('LaserBeamEntry2:23',
'LaserBeamEntry2:23','LaserBeamEntry2:23',#1360,#1369,
'LaserBeamEntry2:23');
#133=NEXT_ASSEMBLY_USAGE_OCCURRENCE('LaserBeamEntry2:24',
'LaserBeamEntry2:24','LaserBeamEntry2:24',#1360,#1369,
'LaserBeamEntry2:24');
#134=NEXT_ASSEMBLY_USAGE_OCCURRENCE('LOOP2_COLL:2','LOOP2_COLL:2',
'LOOP2_COLL:2',#1360,#1366,'LOOP2_COLL:2');
#135=NEXT_ASSEMBLY_USAGE_OCCURRENCE('LOOP2_COLL:3','LOOP2_COLL:3',
'LOOP2_COLL:3',#1360,#1366,'LOOP2_COLL:3');
#136=NEXT_ASSEMBLY_USAGE_OCCURRENCE('LaserBeamEntry2:25',
'LaserBeamEntry2:25','LaserBeamEntry2:25',#1360,#1369,
'LaserBeamEntry2:25');
#137=NEXT_ASSEMBLY_USAGE_OCCURRENCE('LaserBeamEntry2:26',
'LaserBeamEntry2:26','LaserBeamEntry2:26',#1360,#1369,
'LaserBeamEntry2:26');
#138=NEXT_ASSEMBLY_USAGE_OCCURRENCE('LOOP2_COLL_L:2','LOOP2_COLL_L:2',
'LOOP2_COLL_L:2',#1360,#1365,'LOOP2_COLL_L:2');
#139=NEXT_ASSEMBLY_USAGE_OCCURRENCE('LaserBeamEntry2:27',
'LaserBeamEntry2:27','LaserBeamEntry2:27',#1360,#1369,
'LaserBeamEntry2:27');
#140=NEXT_ASSEMBLY_USAGE_OCCURRENCE('LaserBeamEntry2:28',
'LaserBeamEntry2:28','LaserBeamEntry2:28',#1360,#1369,
'LaserBeamEntry2:28');
#141=NEXT_ASSEMBLY_USAGE_OCCURRENCE('LOOP2_COLL:4','LOOP2_COLL:4',
'LOOP2_COLL:4',#1360,#1366,'LOOP2_COLL:4');
#142=NEXT_ASSEMBLY_USAGE_OCCURRENCE('LOOP3_COLL:1','LOOP3_COLL:1',
'LOOP3_COLL:1',#1360,#1367,'LOOP3_COLL:1');
#143=NEXT_ASSEMBLY_USAGE_OCCURRENCE('LaserBeamEntry2:29',
'LaserBeamEntry2:29','LaserBeamEntry2:29',#1360,#1369,
'LaserBeamEntry2:29');
#144=NEXT_ASSEMBLY_USAGE_OCCURRENCE('LaserBeamEntry2:30',
'LaserBeamEntry2:30','LaserBeamEntry2:30',#1360,#1369,
'LaserBeamEntry2:30');
#145=NEXT_ASSEMBLY_USAGE_OCCURRENCE('LOOP3_COLL_L:1','LOOP3_COLL_L:1',
'LOOP3_COLL_L:1',#1360,#1368,'LOOP3_COLL_L:1');
#146=NEXT_ASSEMBLY_USAGE_OCCURRENCE('LaserBeamEntry2:31',
'LaserBeamEntry2:31','LaserBeamEntry2:31',#1360,#1369,
'LaserBeamEntry2:31');
#147=SPHERICAL_SURFACE('',#843,38.63);
#148=SHAPE_REPRESENTATION_RELATIONSHIP('SRR','None',#1350,#157);
#149=SHAPE_REPRESENTATION_RELATIONSHIP('SRR','None',#1351,#158);
#150=SHAPE_REPRESENTATION_RELATIONSHIP('SRR','None',#1352,#159);
#151=SHAPE_REPRESENTATION_RELATIONSHIP('SRR','None',#1353,#160);
#152=SHAPE_REPRESENTATION_RELATIONSHIP('SRR','None',#1354,#161);
#153=SHAPE_REPRESENTATION_RELATIONSHIP('SRR','None',#1355,#162);
#154=SHAPE_REPRESENTATION_RELATIONSHIP('SRR','None',#1356,#163);
#155=SHAPE_REPRESENTATION_RELATIONSHIP('SRR','None',#1357,#164);
#156=SHAPE_REPRESENTATION_RELATIONSHIP('SRR','None',#1358,#165);
#157=ADVANCED_BREP_SHAPE_REPRESENTATION('',(#166),#1281);
#158=ADVANCED_BREP_SHAPE_REPRESENTATION('',(#167),#1282);
#159=ADVANCED_BREP_SHAPE_REPRESENTATION('',(#168),#1283);
#160=ADVANCED_BREP_SHAPE_REPRESENTATION('',(#169),#1284);
#161=ADVANCED_BREP_SHAPE_REPRESENTATION('',(#170),#1285);
#162=ADVANCED_BREP_SHAPE_REPRESENTATION('',(#171),#1286);
#163=ADVANCED_BREP_SHAPE_REPRESENTATION('',(#172),#1287);
#164=ADVANCED_BREP_SHAPE_REPRESENTATION('',(#173),#1288);
#165=ADVANCED_BREP_SHAPE_REPRESENTATION('',(#174),#1289);
#166=MANIFOLD_SOLID_BREP('Solid1',#512);
#167=MANIFOLD_SOLID_BREP('Solid1',#513);
#168=MANIFOLD_SOLID_BREP('Solid1',#514);
#169=MANIFOLD_SOLID_BREP('Solid1',#515);
#170=MANIFOLD_SOLID_BREP('Solid1',#516);
#171=MANIFOLD_SOLID_BREP('Solid1',#517);
#172=MANIFOLD_SOLID_BREP('Solid1',#518);
#173=MANIFOLD_SOLID_BREP('Solid1',#519);
#174=MANIFOLD_SOLID_BREP('Solid2',#520);
#175=CONICAL_SURFACE('',#837,0.490157480314961,0.785398163397434);
#176=CONICAL_SURFACE('',#849,12.5232233047034,0.785398163397448);
#177=CONICAL_SURFACE('',#850,12.5232233047034,0.785398163397424);
#178=CONICAL_SURFACE('',#892,1.,0.0333209958782472);
#179=LINE('',#1142,#191);
#180=LINE('',#1148,#192);
#181=LINE('',#1156,#193);
#182=LINE('',#1169,#194);
#183=LINE('',#1171,#195);
#184=LINE('',#1177,#196);
#185=LINE('',#1186,#197);
#186=LINE('',#1195,#198);
#187=LINE('',#1204,#199);
#188=LINE('',#1213,#200);
#189=LINE('',#1222,#201);
#190=LINE('',#1234,#202);
#191=VECTOR('',#937,0.5);
#192=VECTOR('',#946,0.490157480314961);
#193=VECTOR('',#955,12.7);
#194=VECTOR('',#972,12.5232233047034);
#195=VECTOR('',#975,12.5232233047034);
#196=VECTOR('',#982,1.);
#197=VECTOR('',#995,1.);
#198=VECTOR('',#1008,1.);
#199=VECTOR('',#1021,1.);
#200=VECTOR('',#1034,1.);
#201=VECTOR('',#1047,1.);
#202=VECTOR('',#1066,1.);
#203=CYLINDRICAL_SURFACE('',#833,0.5);
#204=CYLINDRICAL_SURFACE('',#839,12.7);
#205=CYLINDRICAL_SURFACE('',#852,1.);
#206=CYLINDRICAL_SURFACE('',#858,1.);
#207=CYLINDRICAL_SURFACE('',#864,1.);
#208=CYLINDRICAL_SURFACE('',#870,1.);
#209=CYLINDRICAL_SURFACE('',#876,1.);
#210=CYLINDRICAL_SURFACE('',#882,1.);
#211=STYLED_ITEM('',(#628),#483);
#212=STYLED_ITEM('',(#629),#484);
#213=STYLED_ITEM('',(#630),#485);
#214=STYLED_ITEM('',(#627),#166);
#215=STYLED_ITEM('',(#633),#486);
#216=STYLED_ITEM('',(#633),#487);
#217=STYLED_ITEM('',(#633),#488);
#218=STYLED_ITEM('',(#633),#489);
#219=STYLED_ITEM('',(#633),#490);
#220=STYLED_ITEM('',(#632),#167);
#221=STYLED_ITEM('',(#636),#491);
#222=STYLED_ITEM('',(#636),#492);
#223=STYLED_ITEM('',(#636),#493);
#224=STYLED_ITEM('',(#635),#168);
#225=STYLED_ITEM('',(#637),#494);
#226=STYLED_ITEM('',(#637),#495);
#227=STYLED_ITEM('',(#637),#496);
#228=STYLED_ITEM('',(#635),#169);
#229=STYLED_ITEM('',(#638),#497);
#230=STYLED_ITEM('',(#638),#498);
#231=STYLED_ITEM('',(#638),#499);
#232=STYLED_ITEM('',(#635),#170);
#233=STYLED_ITEM('',(#639),#500);
#234=STYLED_ITEM('',(#639),#501);
#235=STYLED_ITEM('',(#639),#502);
#236=STYLED_ITEM('',(#635),#171);
#237=STYLED_ITEM('',(#640),#503);
#238=STYLED_ITEM('',(#640),#504);
#239=STYLED_ITEM('',(#640),#505);
#240=STYLED_ITEM('',(#635),#172);
#241=STYLED_ITEM('',(#641),#506);
#242=STYLED_ITEM('',(#641),#507);
#243=STYLED_ITEM('',(#641),#508);
#244=STYLED_ITEM('',(#635),#173);
#245=STYLED_ITEM('',(#642),#509);
#246=STYLED_ITEM('',(#642),#510);
#247=STYLED_ITEM('',(#642),#511);
#248=STYLED_ITEM('',(#635),#174);
#249=FACE_OUTER_BOUND('',#279,.T.);
#250=FACE_OUTER_BOUND('',#280,.T.);
#251=FACE_OUTER_BOUND('',#281,.T.);
#252=FACE_OUTER_BOUND('',#282,.T.);
#253=FACE_OUTER_BOUND('',#283,.T.);
#254=FACE_OUTER_BOUND('',#284,.T.);
#255=FACE_OUTER_BOUND('',#285,.T.);
#256=FACE_OUTER_BOUND('',#286,.T.);
#257=FACE_OUTER_BOUND('',#287,.T.);
#258=FACE_OUTER_BOUND('',#288,.T.);
#259=FACE_OUTER_BOUND('',#289,.T.);
#260=FACE_OUTER_BOUND('',#290,.T.);
#261=FACE_OUTER_BOUND('',#291,.T.);
#262=FACE_OUTER_BOUND('',#292,.T.);
#263=FACE_OUTER_BOUND('',#293,.T.);
#264=FACE_OUTER_BOUND('',#294,.T.);
#265=FACE_OUTER_BOUND('',#295,.T.);
#266=FACE_OUTER_BOUND('',#296,.T.);
#267=FACE_OUTER_BOUND('',#297,.T.);
#268=FACE_OUTER_BOUND('',#298,.T.);
#269=FACE_OUTER_BOUND('',#299,.T.);
#270=FACE_OUTER_BOUND('',#300,.T.);
#271=FACE_OUTER_BOUND('',#301,.T.);
#272=FACE_OUTER_BOUND('',#302,.T.);
#273=FACE_OUTER_BOUND('',#303,.T.);
#274=FACE_OUTER_BOUND('',#304,.T.);
#275=FACE_OUTER_BOUND('',#305,.T.);
#276=FACE_OUTER_BOUND('',#306,.T.);
#277=FACE_OUTER_BOUND('',#307,.T.);
#278=FACE_OUTER_BOUND('',#308,.T.);
#279=EDGE_LOOP('',(#393));
#280=EDGE_LOOP('',(#394,#395,#396,#397));
#281=EDGE_LOOP('',(#398));
#282=EDGE_LOOP('',(#399,#400,#401,#402));
#283=EDGE_LOOP('',(#403,#404,#405,#406,#407));
#284=EDGE_LOOP('',(#408,#409,#410,#411));
#285=EDGE_LOOP('',(#412));
#286=EDGE_LOOP('',(#413,#414,#415,#416));
#287=EDGE_LOOP('',(#417,#418,#419,#420,#421,#422));
#288=EDGE_LOOP('',(#423,#424,#425,#426));
#289=EDGE_LOOP('',(#427));
#290=EDGE_LOOP('',(#428));
#291=EDGE_LOOP('',(#429,#430,#431,#432));
#292=EDGE_LOOP('',(#433));
#293=EDGE_LOOP('',(#434));
#294=EDGE_LOOP('',(#435,#436,#437,#438));
#295=EDGE_LOOP('',(#439));
#296=EDGE_LOOP('',(#440));
#297=EDGE_LOOP('',(#441,#442,#443,#444));
#298=EDGE_LOOP('',(#445));
#299=EDGE_LOOP('',(#446));
#300=EDGE_LOOP('',(#447,#448,#449,#450));
#301=EDGE_LOOP('',(#451));
#302=EDGE_LOOP('',(#452));
#303=EDGE_LOOP('',(#453,#454,#455,#456));
#304=EDGE_LOOP('',(#457));
#305=EDGE_LOOP('',(#458));
#306=EDGE_LOOP('',(#459));
#307=EDGE_LOOP('',(#460));
#308=EDGE_LOOP('',(#461,#462,#463,#464));
#309=CIRCLE('',#832,0.5);
#310=CIRCLE('',#834,0.5);
#311=CIRCLE('',#836,0.490157480314961);
#312=CIRCLE('',#840,12.7);
#313=CIRCLE('',#841,12.7);
#314=CIRCLE('',#842,12.7);
#315=CIRCLE('',#844,12.5232233047034);
#316=CIRCLE('',#845,38.63);
#317=CIRCLE('',#846,12.5232233047034);
#318=CIRCLE('',#848,12.5232233047034);
#319=CIRCLE('',#853,1.);
#320=CIRCLE('',#854,1.);
#321=CIRCLE('',#859,1.);
#322=CIRCLE('',#860,1.);
#323=CIRCLE('',#865,1.);
#324=CIRCLE('',#866,1.);
#325=CIRCLE('',#871,1.);
#326=CIRCLE('',#872,1.);
#327=CIRCLE('',#877,1.);
#328=CIRCLE('',#878,1.);
#329=CIRCLE('',#883,1.);
#330=CIRCLE('',#884,1.);
#331=CIRCLE('',#889,0.166666666666666);
#332=CIRCLE('',#891,1.);
#333=VERTEX_POINT('',#1138);
#334=VERTEX_POINT('',#1141);
#335=VERTEX_POINT('',#1145);
#336=VERTEX_POINT('',#1151);
#337=VERTEX_POINT('',#1152);
#338=VERTEX_POINT('',#1155);
#339=VERTEX_POINT('',#1159);
#340=VERTEX_POINT('',#1160);
#341=VERTEX_POINT('',#1162);
#342=VERTEX_POINT('',#1166);
#343=VERTEX_POINT('',#1174);
#344=VERTEX_POINT('',#1176);
#345=VERTEX_POINT('',#1183);
#346=VERTEX_POINT('',#1185);
#347=VERTEX_POINT('',#1192);
#348=VERTEX_POINT('',#1194);
#349=VERTEX_POINT('',#1201);
#350=VERTEX_POINT('',#1203);
#351=VERTEX_POINT('',#1210);
#352=VERTEX_POINT('',#1212);
#353=VERTEX_POINT('',#1219);
#354=VERTEX_POINT('',#1221);
#355=VERTEX_POINT('',#1228);
#356=VERTEX_POINT('',#1231);
#357=EDGE_CURVE('',#333,#333,#309,.T.);
#358=EDGE_CURVE('',#333,#334,#179,.T.);
#359=EDGE_CURVE('',#334,#334,#310,.F.);
#360=EDGE_CURVE('',#335,#335,#311,.T.);
#361=EDGE_CURVE('',#334,#335,#180,.T.);
#362=EDGE_CURVE('',#336,#337,#312,.T.);
#363=EDGE_CURVE('',#337,#336,#313,.T.);
#364=EDGE_CURVE('',#337,#338,#181,.T.);
#365=EDGE_CURVE('',#338,#338,#314,.T.);
#366=EDGE_CURVE('',#339,#340,#315,.T.);
#367=EDGE_CURVE('',#341,#340,#316,.T.);
#368=EDGE_CURVE('',#340,#339,#317,.T.);
#369=EDGE_CURVE('',#342,#342,#318,.T.);
#370=EDGE_CURVE('',#338,#342,#182,.T.);
#371=EDGE_CURVE('',#336,#339,#183,.T.);
#372=EDGE_CURVE('',#343,#343,#319,.T.);
#373=EDGE_CURVE('',#343,#344,#184,.T.);
#374=EDGE_CURVE('',#344,#344,#320,.T.);
#375=EDGE_CURVE('',#345,#345,#321,.T.);
#376=EDGE_CURVE('',#345,#346,#185,.T.);
#377=EDGE_CURVE('',#346,#346,#322,.T.);
#378=EDGE_CURVE('',#347,#347,#323,.T.);
#379=EDGE_CURVE('',#347,#348,#186,.T.);
#380=EDGE_CURVE('',#348,#348,#324,.T.);
#381=EDGE_CURVE('',#349,#349,#325,.T.);
#382=EDGE_CURVE('',#349,#350,#187,.T.);
#383=EDGE_CURVE('',#350,#350,#326,.T.);
#384=EDGE_CURVE('',#351,#351,#327,.T.);
#385=EDGE_CURVE('',#351,#352,#188,.T.);
#386=EDGE_CURVE('',#352,#352,#328,.T.);
#387=EDGE_CURVE('',#353,#353,#329,.T.);
#388=EDGE_CURVE('',#353,#354,#189,.T.);
#389=EDGE_CURVE('',#354,#354,#330,.T.);
#390=EDGE_CURVE('',#355,#355,#331,.T.);
#391=EDGE_CURVE('',#356,#356,#332,.T.);
#392=EDGE_CURVE('',#355,#356,#190,.T.);
#393=ORIENTED_EDGE('',*,*,#357,.F.);
#394=ORIENTED_EDGE('',*,*,#357,.T.);
#395=ORIENTED_EDGE('',*,*,#358,.T.);
#396=ORIENTED_EDGE('',*,*,#359,.T.);
#397=ORIENTED_EDGE('',*,*,#358,.F.);
#398=ORIENTED_EDGE('',*,*,#360,.T.);
#399=ORIENTED_EDGE('',*,*,#359,.F.);
#400=ORIENTED_EDGE('',*,*,#361,.T.);
#401=ORIENTED_EDGE('',*,*,#360,.F.);
#402=ORIENTED_EDGE('',*,*,#361,.F.);
#403=ORIENTED_EDGE('',*,*,#362,.F.);
#404=ORIENTED_EDGE('',*,*,#363,.F.);
#405=ORIENTED_EDGE('',*,*,#364,.T.);
#406=ORIENTED_EDGE('',*,*,#365,.T.);
#407=ORIENTED_EDGE('',*,*,#364,.F.);
#408=ORIENTED_EDGE('',*,*,#366,.T.);
#409=ORIENTED_EDGE('',*,*,#367,.F.);
#410=ORIENTED_EDGE('',*,*,#367,.T.);
#411=ORIENTED_EDGE('',*,*,#368,.T.);
#412=ORIENTED_EDGE('',*,*,#369,.F.);
#413=ORIENTED_EDGE('',*,*,#365,.F.);
#414=ORIENTED_EDGE('',*,*,#370,.T.);
#415=ORIENTED_EDGE('',*,*,#369,.T.);
#416=ORIENTED_EDGE('',*,*,#370,.F.);
#417=ORIENTED_EDGE('',*,*,#362,.T.);
#418=ORIENTED_EDGE('',*,*,#363,.T.);
#419=ORIENTED_EDGE('',*,*,#371,.T.);
#420=ORIENTED_EDGE('',*,*,#368,.F.);
#421=ORIENTED_EDGE('',*,*,#366,.F.);
#422=ORIENTED_EDGE('',*,*,#371,.F.);
#423=ORIENTED_EDGE('',*,*,#372,.F.);
#424=ORIENTED_EDGE('',*,*,#373,.T.);
#425=ORIENTED_EDGE('',*,*,#374,.T.);
#426=ORIENTED_EDGE('',*,*,#373,.F.);
#427=ORIENTED_EDGE('',*,*,#372,.T.);
#428=ORIENTED_EDGE('',*,*,#374,.F.);
#429=ORIENTED_EDGE('',*,*,#375,.F.);
#430=ORIENTED_EDGE('',*,*,#376,.T.);
#431=ORIENTED_EDGE('',*,*,#377,.T.);
#432=ORIENTED_EDGE('',*,*,#376,.F.);
#433=ORIENTED_EDGE('',*,*,#375,.T.);
#434=ORIENTED_EDGE('',*,*,#377,.F.);
#435=ORIENTED_EDGE('',*,*,#378,.F.);
#436=ORIENTED_EDGE('',*,*,#379,.T.);
#437=ORIENTED_EDGE('',*,*,#380,.T.);
#438=ORIENTED_EDGE('',*,*,#379,.F.);
#439=ORIENTED_EDGE('',*,*,#378,.T.);
#440=ORIENTED_EDGE('',*,*,#380,.F.);
#441=ORIENTED_EDGE('',*,*,#381,.F.);
#442=ORIENTED_EDGE('',*,*,#382,.T.);
#443=ORIENTED_EDGE('',*,*,#383,.T.);
#444=ORIENTED_EDGE('',*,*,#382,.F.);
#445=ORIENTED_EDGE('',*,*,#381,.T.);
#446=ORIENTED_EDGE('',*,*,#383,.F.);
#447=ORIENTED_EDGE('',*,*,#384,.F.);
#448=ORIENTED_EDGE('',*,*,#385,.T.);
#449=ORIENTED_EDGE('',*,*,#386,.T.);
#450=ORIENTED_EDGE('',*,*,#385,.F.);
#451=ORIENTED_EDGE('',*,*,#384,.T.);
#452=ORIENTED_EDGE('',*,*,#386,.F.);
#453=ORIENTED_EDGE('',*,*,#387,.F.);
#454=ORIENTED_EDGE('',*,*,#388,.T.);
#455=ORIENTED_EDGE('',*,*,#389,.T.);
#456=ORIENTED_EDGE('',*,*,#388,.F.);
#457=ORIENTED_EDGE('',*,*,#387,.T.);
#458=ORIENTED_EDGE('',*,*,#389,.F.);
#459=ORIENTED_EDGE('',*,*,#390,.F.);
#460=ORIENTED_EDGE('',*,*,#391,.F.);
#461=ORIENTED_EDGE('',*,*,#390,.T.);
#462=ORIENTED_EDGE('',*,*,#392,.T.);
#463=ORIENTED_EDGE('',*,*,#391,.T.);
#464=ORIENTED_EDGE('',*,*,#392,.F.);
#465=PLANE('',#831);
#466=PLANE('',#835);
#467=PLANE('',#847);
#468=PLANE('',#855);
#469=PLANE('',#856);
#470=PLANE('',#861);
#471=PLANE('',#862);
#472=PLANE('',#867);
#473=PLANE('',#868);
#474=PLANE('',#873);
#475=PLANE('',#874);
#476=PLANE('',#879);
#477=PLANE('',#880);
#478=PLANE('',#885);
#479=PLANE('',#886);
#480=PLANE('',#888);
#481=PLANE('',#890);
#482=ADVANCED_FACE('',(#249),#465,.T.);
#483=ADVANCED_FACE('',(#250),#203,.T.);
#484=ADVANCED_FACE('',(#251),#466,.T.);
#485=ADVANCED_FACE('',(#252),#175,.T.);
#486=ADVANCED_FACE('',(#253),#204,.T.);
#487=ADVANCED_FACE('',(#254),#147,.T.);
#488=ADVANCED_FACE('',(#255),#467,.F.);
#489=ADVANCED_FACE('',(#256),#176,.T.);
#490=ADVANCED_FACE('',(#257),#177,.T.);
#491=ADVANCED_FACE('',(#258),#205,.T.);
#492=ADVANCED_FACE('',(#259),#468,.T.);
#493=ADVANCED_FACE('',(#260),#469,.F.);
#494=ADVANCED_FACE('',(#261),#206,.T.);
#495=ADVANCED_FACE('',(#262),#470,.T.);
#496=ADVANCED_FACE('',(#263),#471,.F.);
#497=ADVANCED_FACE('',(#264),#207,.T.);
#498=ADVANCED_FACE('',(#265),#472,.T.);
#499=ADVANCED_FACE('',(#266),#473,.F.);
#500=ADVANCED_FACE('',(#267),#208,.T.);
#501=ADVANCED_FACE('',(#268),#474,.T.);
#502=ADVANCED_FACE('',(#269),#475,.F.);
#503=ADVANCED_FACE('',(#270),#209,.T.);
#504=ADVANCED_FACE('',(#271),#476,.T.);
#505=ADVANCED_FACE('',(#272),#477,.F.);
#506=ADVANCED_FACE('',(#273),#210,.T.);
#507=ADVANCED_FACE('',(#274),#478,.T.);
#508=ADVANCED_FACE('',(#275),#479,.F.);
#509=ADVANCED_FACE('',(#276),#480,.T.);
#510=ADVANCED_FACE('',(#277),#481,.T.);
#511=ADVANCED_FACE('',(#278),#178,.T.);
#512=CLOSED_SHELL('',(#482,#483,#484,#485));
#513=CLOSED_SHELL('',(#486,#487,#488,#489,#490));
#514=CLOSED_SHELL('',(#491,#492,#493));
#515=CLOSED_SHELL('',(#494,#495,#496));
#516=CLOSED_SHELL('',(#497,#498,#499));
#517=CLOSED_SHELL('',(#500,#501,#502));
#518=CLOSED_SHELL('',(#503,#504,#505));
#519=CLOSED_SHELL('',(#506,#507,#508));
#520=CLOSED_SHELL('',(#509,#510,#511));
#521=DERIVED_UNIT_ELEMENT(#539,1.);
#522=DERIVED_UNIT_ELEMENT(#1292,-3.);
#523=DERIVED_UNIT_ELEMENT(#539,1.);
#524=DERIVED_UNIT_ELEMENT(#1292,-3.);
#525=DERIVED_UNIT_ELEMENT(#539,1.);
#526=DERIVED_UNIT_ELEMENT(#1292,-3.);
#527=DERIVED_UNIT_ELEMENT(#539,1.);
#528=DERIVED_UNIT_ELEMENT(#1292,-3.);
#529=DERIVED_UNIT_ELEMENT(#539,1.);
#530=DERIVED_UNIT_ELEMENT(#1292,-3.);
#531=DERIVED_UNIT_ELEMENT(#539,1.);
#532=DERIVED_UNIT_ELEMENT(#1292,-3.);
#533=DERIVED_UNIT_ELEMENT(#539,1.);
#534=DERIVED_UNIT_ELEMENT(#1292,-3.);
#535=DERIVED_UNIT_ELEMENT(#539,1.);
#536=DERIVED_UNIT_ELEMENT(#1292,-3.);
#537=DERIVED_UNIT_ELEMENT(#539,1.);
#538=DERIVED_UNIT_ELEMENT(#1292,-3.);
#539=(
CONVERSION_BASED_UNIT('gram',#541)
MASS_UNIT()
NAMED_UNIT(#624)
);
#540=(
MASS_UNIT()
NAMED_UNIT(*)
SI_UNIT(.KILO.,.GRAM.)
);
#541=MASS_MEASURE_WITH_UNIT(MASS_MEASURE(0.001),#540);
#542=DERIVED_UNIT((#521,#522));
#543=DERIVED_UNIT((#523,#524));
#544=DERIVED_UNIT((#525,#526));
#545=DERIVED_UNIT((#527,#528));
#546=DERIVED_UNIT((#529,#530));
#547=DERIVED_UNIT((#531,#532));
#548=DERIVED_UNIT((#533,#534));
#549=DERIVED_UNIT((#535,#536));
#550=DERIVED_UNIT((#537,#538));
#551=MEASURE_REPRESENTATION_ITEM('density measure',
POSITIVE_RATIO_MEASURE(1.),#542);
#552=MEASURE_REPRESENTATION_ITEM('density measure',
POSITIVE_RATIO_MEASURE(1.),#543);
#553=MEASURE_REPRESENTATION_ITEM('density measure',
POSITIVE_RATIO_MEASURE(1.),#544);
#554=MEASURE_REPRESENTATION_ITEM('density measure',
POSITIVE_RATIO_MEASURE(1.),#545);
#555=MEASURE_REPRESENTATION_ITEM('density measure',
POSITIVE_RATIO_MEASURE(1.),#546);
#556=MEASURE_REPRESENTATION_ITEM('density measure',
POSITIVE_RATIO_MEASURE(1.),#547);
#557=MEASURE_REPRESENTATION_ITEM('density measure',
POSITIVE_RATIO_MEASURE(1.),#548);
#558=MEASURE_REPRESENTATION_ITEM('density measure',
POSITIVE_RATIO_MEASURE(1.),#549);
#559=MEASURE_REPRESENTATION_ITEM('density measure',
POSITIVE_RATIO_MEASURE(1.),#550);
#560=PROPERTY_DEFINITION_REPRESENTATION(#605,#578);
#561=PROPERTY_DEFINITION_REPRESENTATION(#606,#579);
#562=PROPERTY_DEFINITION_REPRESENTATION(#607,#580);
#563=PROPERTY_DEFINITION_REPRESENTATION(#608,#581);
#564=PROPERTY_DEFINITION_REPRESENTATION(#609,#582);
#565=PROPERTY_DEFINITION_REPRESENTATION(#610,#583);
#566=PROPERTY_DEFINITION_REPRESENTATION(#611,#584);
#567=PROPERTY_DEFINITION_REPRESENTATION(#612,#585);
#568=PROPERTY_DEFINITION_REPRESENTATION(#613,#586);
#569=PROPERTY_DEFINITION_REPRESENTATION(#614,#587);
#570=PROPERTY_DEFINITION_REPRESENTATION(#615,#588);
#571=PROPERTY_DEFINITION_REPRESENTATION(#616,#589);
#572=PROPERTY_DEFINITION_REPRESENTATION(#617,#590);
#573=PROPERTY_DEFINITION_REPRESENTATION(#618,#591);
#574=PROPERTY_DEFINITION_REPRESENTATION(#619,#592);
#575=PROPERTY_DEFINITION_REPRESENTATION(#620,#593);
#576=PROPERTY_DEFINITION_REPRESENTATION(#621,#594);
#577=PROPERTY_DEFINITION_REPRESENTATION(#622,#595);
#578=REPRESENTATION('material name',(#596),#1281);
#579=REPRESENTATION('density',(#551),#1281);
#580=REPRESENTATION('material name',(#597),#1282);
#581=REPRESENTATION('density',(#552),#1282);
#582=REPRESENTATION('material name',(#598),#1283);
#583=REPRESENTATION('density',(#553),#1283);
#584=REPRESENTATION('material name',(#599),#1284);
#585=REPRESENTATION('density',(#554),#1284);
#586=REPRESENTATION('material name',(#600),#1285);
#587=REPRESENTATION('density',(#555),#1285);
#588=REPRESENTATION('material name',(#601),#1286);
#589=REPRESENTATION('density',(#556),#1286);
#590=REPRESENTATION('material name',(#602),#1287);
#591=REPRESENTATION('density',(#557),#1287);
#592=REPRESENTATION('material name',(#603),#1288);
#593=REPRESENTATION('density',(#558),#1288);
#594=REPRESENTATION('material name',(#604),#1289);
#595=REPRESENTATION('density',(#559),#1289);
#596=DESCRIPTIVE_REPRESENTATION_ITEM('Generic','Generic');
#597=DESCRIPTIVE_REPRESENTATION_ITEM('Generic','Generic');
#598=DESCRIPTIVE_REPRESENTATION_ITEM('Generic','Generic');
#599=DESCRIPTIVE_REPRESENTATION_ITEM('Generic','Generic');
#600=DESCRIPTIVE_REPRESENTATION_ITEM('Generic','Generic');
#601=DESCRIPTIVE_REPRESENTATION_ITEM('Generic','Generic');
#602=DESCRIPTIVE_REPRESENTATION_ITEM('Generic','Generic');
#603=DESCRIPTIVE_REPRESENTATION_ITEM('Generic','Generic');
#604=DESCRIPTIVE_REPRESENTATION_ITEM('Generic','Generic');
#605=PROPERTY_DEFINITION('material property','material name',#1361);
#606=PROPERTY_DEFINITION('material property','density of part',#1361);
#607=PROPERTY_DEFINITION('material property','material name',#1362);
#608=PROPERTY_DEFINITION('material property','density of part',#1362);
#609=PROPERTY_DEFINITION('material property','material name',#1363);
#610=PROPERTY_DEFINITION('material property','density of part',#1363);
#611=PROPERTY_DEFINITION('material property','material name',#1364);
#612=PROPERTY_DEFINITION('material property','density of part',#1364);
#613=PROPERTY_DEFINITION('material property','material name',#1365);
#614=PROPERTY_DEFINITION('material property','density of part',#1365);
#615=PROPERTY_DEFINITION('material property','material name',#1366);
#616=PROPERTY_DEFINITION('material property','density of part',#1366);
#617=PROPERTY_DEFINITION('material property','material name',#1367);
#618=PROPERTY_DEFINITION('material property','density of part',#1367);
#619=PROPERTY_DEFINITION('material property','material name',#1368);
#620=PROPERTY_DEFINITION('material property','density of part',#1368);
#621=PROPERTY_DEFINITION('material property','material name',#1369);
#622=PROPERTY_DEFINITION('material property','density of part',#1369);
#623=DIMENSIONAL_EXPONENTS(1.,0.,0.,0.,0.,0.,0.);
#624=DIMENSIONAL_EXPONENTS(0.,1.,0.,0.,0.,0.,0.);
#625=(
CONVERSION_BASED_UNIT('inch',#626)
LENGTH_UNIT()
NAMED_UNIT(#623)
);
#626=LENGTH_MEASURE_WITH_UNIT(LENGTH_MEASURE(25.4),#1291);
#627=PRESENTATION_STYLE_ASSIGNMENT((#643));
#628=PRESENTATION_STYLE_ASSIGNMENT((#644));
#629=PRESENTATION_STYLE_ASSIGNMENT((#645));
#630=PRESENTATION_STYLE_ASSIGNMENT((#646));
#631=PRESENTATION_STYLE_ASSIGNMENT((#647));
#632=PRESENTATION_STYLE_ASSIGNMENT((#648));
#633=PRESENTATION_STYLE_ASSIGNMENT((#649));
#634=PRESENTATION_STYLE_ASSIGNMENT((#650));
#635=PRESENTATION_STYLE_ASSIGNMENT((#651));
#636=PRESENTATION_STYLE_ASSIGNMENT((#652));
#637=PRESENTATION_STYLE_ASSIGNMENT((#653));
#638=PRESENTATION_STYLE_ASSIGNMENT((#654));
#639=PRESENTATION_STYLE_ASSIGNMENT((#655));
#640=PRESENTATION_STYLE_ASSIGNMENT((#656));
#641=PRESENTATION_STYLE_ASSIGNMENT((#657));
#642=PRESENTATION_STYLE_ASSIGNMENT((#658));
#643=SURFACE_STYLE_USAGE(.BOTH.,#689);
#644=SURFACE_STYLE_USAGE(.BOTH.,#690);
#645=SURFACE_STYLE_USAGE(.BOTH.,#691);
#646=SURFACE_STYLE_USAGE(.BOTH.,#692);
#647=SURFACE_STYLE_USAGE(.BOTH.,#693);
#648=SURFACE_STYLE_USAGE(.BOTH.,#694);
#649=SURFACE_STYLE_USAGE(.BOTH.,#695);
#650=SURFACE_STYLE_USAGE(.BOTH.,#696);
#651=SURFACE_STYLE_USAGE(.BOTH.,#697);
#652=SURFACE_STYLE_USAGE(.BOTH.,#698);
#653=SURFACE_STYLE_USAGE(.BOTH.,#699);
#654=SURFACE_STYLE_USAGE(.BOTH.,#700);
#655=SURFACE_STYLE_USAGE(.BOTH.,#701);
#656=SURFACE_STYLE_USAGE(.BOTH.,#702);
#657=SURFACE_STYLE_USAGE(.BOTH.,#703);
#658=SURFACE_STYLE_USAGE(.BOTH.,#704);
#659=SURFACE_STYLE_RENDERING_WITH_PROPERTIES($,#753,(#674));
#660=SURFACE_STYLE_RENDERING_WITH_PROPERTIES($,#754,(#675));
#661=SURFACE_STYLE_RENDERING_WITH_PROPERTIES($,#755,(#676));
#662=SURFACE_STYLE_RENDERING_WITH_PROPERTIES($,#756,(#677));
#663=SURFACE_STYLE_RENDERING_WITH_PROPERTIES($,#757,(#678));
#664=SURFACE_STYLE_RENDERING_WITH_PROPERTIES($,#758,(#679));
#665=SURFACE_STYLE_RENDERING_WITH_PROPERTIES($,#759,(#680));
#666=SURFACE_STYLE_RENDERING_WITH_PROPERTIES($,#761,(#681));
#667=SURFACE_STYLE_RENDERING_WITH_PROPERTIES($,#762,(#682));
#668=SURFACE_STYLE_RENDERING_WITH_PROPERTIES($,#763,(#683));
#669=SURFACE_STYLE_RENDERING_WITH_PROPERTIES($,#764,(#684));
#670=SURFACE_STYLE_RENDERING_WITH_PROPERTIES($,#765,(#685));
#671=SURFACE_STYLE_RENDERING_WITH_PROPERTIES($,#766,(#686));
#672=SURFACE_STYLE_RENDERING_WITH_PROPERTIES($,#767,(#687));
#673=SURFACE_STYLE_RENDERING_WITH_PROPERTIES($,#768,(#688));
#674=SURFACE_STYLE_TRANSPARENT(0.);
#675=SURFACE_STYLE_TRANSPARENT(0.339999973773956);
#676=SURFACE_STYLE_TRANSPARENT(0.);
#677=SURFACE_STYLE_TRANSPARENT(0.5);
#678=SURFACE_STYLE_TRANSPARENT(0.);
#679=SURFACE_STYLE_TRANSPARENT(0.480000019073486);
#680=SURFACE_STYLE_TRANSPARENT(0.599999994039536);
#681=SURFACE_STYLE_TRANSPARENT(0.);
#682=SURFACE_STYLE_TRANSPARENT(0.480000019073486);
#683=SURFACE_STYLE_TRANSPARENT(0.480000019073486);
#684=SURFACE_STYLE_TRANSPARENT(0.480000019073486);
#685=SURFACE_STYLE_TRANSPARENT(0.480000019073486);
#686=SURFACE_STYLE_TRANSPARENT(0.480000019073486);
#687=SURFACE_STYLE_TRANSPARENT(0.480000019073486);
#688=SURFACE_STYLE_TRANSPARENT(0.480000019073486);
#689=SURFACE_SIDE_STYLE('',(#705,#659));
#690=SURFACE_SIDE_STYLE('',(#706,#660));
#691=SURFACE_SIDE_STYLE('',(#707,#661));
#692=SURFACE_SIDE_STYLE('',(#708,#662));
#693=SURFACE_SIDE_STYLE('',(#709,#663));
#694=SURFACE_SIDE_STYLE('',(#710,#664));
#695=SURFACE_SIDE_STYLE('',(#711,#665));
#696=SURFACE_SIDE_STYLE('',(#712));
#697=SURFACE_SIDE_STYLE('',(#713,#666));
#698=SURFACE_SIDE_STYLE('',(#714,#667));
#699=SURFACE_SIDE_STYLE('',(#715,#668));
#700=SURFACE_SIDE_STYLE('',(#716,#669));
#701=SURFACE_SIDE_STYLE('',(#717,#670));
#702=SURFACE_SIDE_STYLE('',(#718,#671));
#703=SURFACE_SIDE_STYLE('',(#719,#672));
#704=SURFACE_SIDE_STYLE('',(#720,#673));
#705=SURFACE_STYLE_FILL_AREA(#721);
#706=SURFACE_STYLE_FILL_AREA(#722);
#707=SURFACE_STYLE_FILL_AREA(#723);
#708=SURFACE_STYLE_FILL_AREA(#724);
#709=SURFACE_STYLE_FILL_AREA(#725);
#710=SURFACE_STYLE_FILL_AREA(#726);
#711=SURFACE_STYLE_FILL_AREA(#727);
#712=SURFACE_STYLE_FILL_AREA(#728);
#713=SURFACE_STYLE_FILL_AREA(#729);
#714=SURFACE_STYLE_FILL_AREA(#730);
#715=SURFACE_STYLE_FILL_AREA(#731);
#716=SURFACE_STYLE_FILL_AREA(#732);
#717=SURFACE_STYLE_FILL_AREA(#733);
#718=SURFACE_STYLE_FILL_AREA(#734);
#719=SURFACE_STYLE_FILL_AREA(#735);
#720=SURFACE_STYLE_FILL_AREA(#736);
#721=FILL_AREA_STYLE('',(#737));
#722=FILL_AREA_STYLE('',(#738));
#723=FILL_AREA_STYLE('',(#739));
#724=FILL_AREA_STYLE('',(#740));
#725=FILL_AREA_STYLE('',(#741));
#726=FILL_AREA_STYLE('',(#742));
#727=FILL_AREA_STYLE('',(#743));
#728=FILL_AREA_STYLE('',(#744));
#729=FILL_AREA_STYLE('',(#745));
#730=FILL_AREA_STYLE('',(#746));
#731=FILL_AREA_STYLE('',(#747));
#732=FILL_AREA_STYLE('',(#748));
#733=FILL_AREA_STYLE('',(#749));
#734=FILL_AREA_STYLE('',(#750));
#735=FILL_AREA_STYLE('',(#751));
#736=FILL_AREA_STYLE('',(#752));
#737=FILL_AREA_STYLE_COLOUR('',#753);
#738=FILL_AREA_STYLE_COLOUR('',#754);
#739=FILL_AREA_STYLE_COLOUR('',#755);
#740=FILL_AREA_STYLE_COLOUR('',#756);
#741=FILL_AREA_STYLE_COLOUR('',#757);
#742=FILL_AREA_STYLE_COLOUR('',#758);
#743=FILL_AREA_STYLE_COLOUR('',#759);
#744=FILL_AREA_STYLE_COLOUR('',#760);
#745=FILL_AREA_STYLE_COLOUR('',#761);
#746=FILL_AREA_STYLE_COLOUR('',#762);
#747=FILL_AREA_STYLE_COLOUR('',#763);
#748=FILL_AREA_STYLE_COLOUR('',#764);
#749=FILL_AREA_STYLE_COLOUR('',#765);
#750=FILL_AREA_STYLE_COLOUR('',#766);
#751=FILL_AREA_STYLE_COLOUR('',#767);
#752=FILL_AREA_STYLE_COLOUR('',#768);
#753=COLOUR_RGB('',0.792156862745098,0.819607843137255,0.933333333333333);
#754=COLOUR_RGB('',0.925490196078431,0.945098039215686,0.937254901960784);
#755=COLOUR_RGB('',0.968627450980392,0.933333333333333,0.792156862745098);
#756=COLOUR_RGB('',1.,1.,1.);
#757=COLOUR_RGB('',0.792156862745098,0.819607843137255,0.933333333333333);
#758=COLOUR_RGB('',0.00392156862745098,0.243137254901961,0.945098039215686);
#759=COLOUR_RGB('',0.898039215686275,0.898039215686275,0.898039215686275);
#760=COLOUR_RGB('',0.913725490196078,0.913725490196078,0.);
#761=COLOUR_RGB('',0.749019607843137,0.749019607843137,0.749019607843137);
#762=COLOUR_RGB('',0.141176470588235,0.0627450980392157,0.305882352941176);
#763=COLOUR_RGB('',0.141176470588235,0.0627450980392157,0.305882352941176);
#764=COLOUR_RGB('',0.141176470588235,0.0627450980392157,0.305882352941176);
#765=COLOUR_RGB('',0.141176470588235,0.0627450980392157,0.305882352941176);
#766=COLOUR_RGB('',0.141176470588235,0.0627450980392157,0.305882352941176);
#767=COLOUR_RGB('',0.141176470588235,0.0627450980392157,0.305882352941176);
#768=COLOUR_RGB('',0.141176470588235,0.0627450980392157,0.305882352941176);
#769=DATE_TIME_ROLE('creation_date');
#770=DATE_TIME_ROLE('creation_date');
#771=DATE_TIME_ROLE('creation_date');
#772=DATE_TIME_ROLE('creation_date');
#773=DATE_TIME_ROLE('creation_date');
#774=DATE_TIME_ROLE('creation_date');
#775=DATE_TIME_ROLE('creation_date');
#776=DATE_TIME_ROLE('creation_date');
#777=DATE_TIME_ROLE('creation_date');
#778=DATE_TIME_ROLE('creation_date');
#779=APPLIED_DATE_AND_TIME_ASSIGNMENT(#789,#769,(#1360));
#780=APPLIED_DATE_AND_TIME_ASSIGNMENT(#790,#770,(#1361));
#781=APPLIED_DATE_AND_TIME_ASSIGNMENT(#791,#771,(#1362));
#782=APPLIED_DATE_AND_TIME_ASSIGNMENT(#792,#772,(#1363));
#783=APPLIED_DATE_AND_TIME_ASSIGNMENT(#793,#773,(#1364));
#784=APPLIED_DATE_AND_TIME_ASSIGNMENT(#794,#774,(#1365));
#785=APPLIED_DATE_AND_TIME_ASSIGNMENT(#795,#775,(#1366));
#786=APPLIED_DATE_AND_TIME_ASSIGNMENT(#796,#776,(#1367));
#787=APPLIED_DATE_AND_TIME_ASSIGNMENT(#797,#777,(#1368));
#788=APPLIED_DATE_AND_TIME_ASSIGNMENT(#798,#778,(#1369));
#789=DATE_AND_TIME(#799,#809);
#790=DATE_AND_TIME(#800,#810);
#791=DATE_AND_TIME(#801,#811);
#792=DATE_AND_TIME(#802,#812);
#793=DATE_AND_TIME(#803,#813);
#794=DATE_AND_TIME(#804,#814);
#795=DATE_AND_TIME(#805,#815);
#796=DATE_AND_TIME(#806,#816);
#797=DATE_AND_TIME(#807,#817);
#798=DATE_AND_TIME(#808,#818);
#799=CALENDAR_DATE(2024,19,8);
#800=CALENDAR_DATE(2018,19,3);
#801=CALENDAR_DATE(2020,16,3);
#802=CALENDAR_DATE(2024,12,8);
#803=CALENDAR_DATE(2024,12,8);
#804=CALENDAR_DATE(2024,12,8);
#805=CALENDAR_DATE(2024,12,8);
#806=CALENDAR_DATE(2024,12,8);
#807=CALENDAR_DATE(2024,12,8);
#808=CALENDAR_DATE(2024,12,8);
#809=LOCAL_TIME(0,0,0.,#819);
#810=LOCAL_TIME(13,28,25.,#820);
#811=LOCAL_TIME(23,27,12.,#821);
#812=LOCAL_TIME(0,0,0.,#822);
#813=LOCAL_TIME(0,0,0.,#823);
#814=LOCAL_TIME(0,0,0.,#824);
#815=LOCAL_TIME(0,0,0.,#825);
#816=LOCAL_TIME(0,0,0.,#826);
#817=LOCAL_TIME(0,0,0.,#827);
#818=LOCAL_TIME(0,0,0.,#828);
#819=COORDINATED_UNIVERSAL_TIME_OFFSET(0,0,.BEHIND.);
#820=COORDINATED_UNIVERSAL_TIME_OFFSET(0,0,.BEHIND.);
#821=COORDINATED_UNIVERSAL_TIME_OFFSET(0,0,.BEHIND.);
#822=COORDINATED_UNIVERSAL_TIME_OFFSET(0,0,.BEHIND.);
#823=COORDINATED_UNIVERSAL_TIME_OFFSET(0,0,.BEHIND.);
#824=COORDINATED_UNIVERSAL_TIME_OFFSET(0,0,.BEHIND.);
#825=COORDINATED_UNIVERSAL_TIME_OFFSET(0,0,.BEHIND.);
#826=COORDINATED_UNIVERSAL_TIME_OFFSET(0,0,.BEHIND.);
#827=COORDINATED_UNIVERSAL_TIME_OFFSET(0,0,.BEHIND.);
#828=COORDINATED_UNIVERSAL_TIME_OFFSET(0,0,.BEHIND.);
#829=AXIS2_PLACEMENT_3D('',#1135,#927,#928);
#830=AXIS2_PLACEMENT_3D('',#1136,#929,#930);
#831=AXIS2_PLACEMENT_3D('',#1137,#931,#932);
#832=AXIS2_PLACEMENT_3D('',#1139,#933,#934);
#833=AXIS2_PLACEMENT_3D('',#1140,#935,#936);
#834=AXIS2_PLACEMENT_3D('',#1143,#938,#939);
#835=AXIS2_PLACEMENT_3D('',#1144,#940,#941);
#836=AXIS2_PLACEMENT_3D('',#1146,#942,#943);
#837=AXIS2_PLACEMENT_3D('',#1147,#944,#945);
#838=AXIS2_PLACEMENT_3D('',#1149,#947,#948);
#839=AXIS2_PLACEMENT_3D('',#1150,#949,#950);
#840=AXIS2_PLACEMENT_3D('',#1153,#951,#952);
#841=AXIS2_PLACEMENT_3D('',#1154,#953,#954);
#842=AXIS2_PLACEMENT_3D('',#1157,#956,#957);
#843=AXIS2_PLACEMENT_3D('',#1158,#958,#959);
#844=AXIS2_PLACEMENT_3D('',#1161,#960,#961);
#845=AXIS2_PLACEMENT_3D('',#1163,#962,#963);
#846=AXIS2_PLACEMENT_3D('',#1164,#964,#965);
#847=AXIS2_PLACEMENT_3D('',#1165,#966,#967);
#848=AXIS2_PLACEMENT_3D('',#1167,#968,#969);
#849=AXIS2_PLACEMENT_3D('',#1168,#970,#971);
#850=AXIS2_PLACEMENT_3D('',#1170,#973,#974);
#851=AXIS2_PLACEMENT_3D('',#1172,#976,#977);
#852=AXIS2_PLACEMENT_3D('',#1173,#978,#979);
#853=AXIS2_PLACEMENT_3D('',#1175,#980,#981);
#854=AXIS2_PLACEMENT_3D('',#1178,#983,#984);
#855=AXIS2_PLACEMENT_3D('',#1179,#985,#986);
#856=AXIS2_PLACEMENT_3D('',#1180,#987,#988);
#857=AXIS2_PLACEMENT_3D('',#1181,#989,#990);
#858=AXIS2_PLACEMENT_3D('',#1182,#991,#992);
#859=AXIS2_PLACEMENT_3D('',#1184,#993,#994);
#860=AXIS2_PLACEMENT_3D('',#1187,#996,#997);
#861=AXIS2_PLACEMENT_3D('',#1188,#998,#999);
#862=AXIS2_PLACEMENT_3D('',#1189,#1000,#1001);
#863=AXIS2_PLACEMENT_3D('',#1190,#1002,#1003);
#864=AXIS2_PLACEMENT_3D('',#1191,#1004,#1005);
#865=AXIS2_PLACEMENT_3D('',#1193,#1006,#1007);
#866=AXIS2_PLACEMENT_3D('',#1196,#1009,#1010);
#867=AXIS2_PLACEMENT_3D('',#1197,#1011,#1012);
#868=AXIS2_PLACEMENT_3D('',#1198,#1013,#1014);
#869=AXIS2_PLACEMENT_3D('',#1199,#1015,#1016);
#870=AXIS2_PLACEMENT_3D('',#1200,#1017,#1018);
#871=AXIS2_PLACEMENT_3D('',#1202,#1019,#1020);
#872=AXIS2_PLACEMENT_3D('',#1205,#1022,#1023);
#873=AXIS2_PLACEMENT_3D('',#1206,#1024,#1025);
#874=AXIS2_PLACEMENT_3D('',#1207,#1026,#1027);
#875=AXIS2_PLACEMENT_3D('',#1208,#1028,#1029);
#876=AXIS2_PLACEMENT_3D('',#1209,#1030,#1031);
#877=AXIS2_PLACEMENT_3D('',#1211,#1032,#1033);
#878=AXIS2_PLACEMENT_3D('',#1214,#1035,#1036);
#879=AXIS2_PLACEMENT_3D('',#1215,#1037,#1038);
#880=AXIS2_PLACEMENT_3D('',#1216,#1039,#1040);
#881=AXIS2_PLACEMENT_3D('',#1217,#1041,#1042);
#882=AXIS2_PLACEMENT_3D('',#1218,#1043,#1044);
#883=AXIS2_PLACEMENT_3D('',#1220,#1045,#1046);
#884=AXIS2_PLACEMENT_3D('',#1223,#1048,#1049);
#885=AXIS2_PLACEMENT_3D('',#1224,#1050,#1051);
#886=AXIS2_PLACEMENT_3D('',#1225,#1052,#1053);
#887=AXIS2_PLACEMENT_3D('',#1226,#1054,#1055);
#888=AXIS2_PLACEMENT_3D('',#1227,#1056,#1057);
#889=AXIS2_PLACEMENT_3D('',#1229,#1058,#1059);
#890=AXIS2_PLACEMENT_3D('',#1230,#1060,#1061);
#891=AXIS2_PLACEMENT_3D('',#1232,#1062,#1063);
#892=AXIS2_PLACEMENT_3D('',#1233,#1064,#1065);
#893=AXIS2_PLACEMENT_3D('',#1235,#1067,#1068);
#894=AXIS2_PLACEMENT_3D('',#1236,#1069,#1070);
#895=AXIS2_PLACEMENT_3D('',#1237,#1071,#1072);
#896=AXIS2_PLACEMENT_3D('',#1238,#1073,#1074);
#897=AXIS2_PLACEMENT_3D('',#1239,#1075,#1076);
#898=AXIS2_PLACEMENT_3D('',#1240,#1077,#1078);
#899=AXIS2_PLACEMENT_3D('',#1241,#1079,#1080);
#900=AXIS2_PLACEMENT_3D('',#1242,#1081,#1082);
#901=AXIS2_PLACEMENT_3D('',#1243,#1083,#1084);
#902=AXIS2_PLACEMENT_3D('',#1244,#1085,#1086);
#903=AXIS2_PLACEMENT_3D('',#1245,#1087,#1088);
#904=AXIS2_PLACEMENT_3D('',#1246,#1089,#1090);
#905=AXIS2_PLACEMENT_3D('',#1247,#1091,#1092);
#906=AXIS2_PLACEMENT_3D('',#1248,#1093,#1094);
#907=AXIS2_PLACEMENT_3D('',#1249,#1095,#1096);
#908=AXIS2_PLACEMENT_3D('',#1250,#1097,#1098);
#909=AXIS2_PLACEMENT_3D('',#1251,#1099,#1100);
#910=AXIS2_PLACEMENT_3D('',#1252,#1101,#1102);
#911=AXIS2_PLACEMENT_3D('',#1253,#1103,#1104);
#912=AXIS2_PLACEMENT_3D('',#1254,#1105,#1106);
#913=AXIS2_PLACEMENT_3D('',#1255,#1107,#1108);
#914=AXIS2_PLACEMENT_3D('',#1256,#1109,#1110);
#915=AXIS2_PLACEMENT_3D('',#1257,#1111,#1112);
#916=AXIS2_PLACEMENT_3D('',#1258,#1113,#1114);
#917=AXIS2_PLACEMENT_3D('',#1259,#1115,#1116);
#918=AXIS2_PLACEMENT_3D('',#1260,#1117,#1118);
#919=AXIS2_PLACEMENT_3D('',#1261,#1119,#1120);
#920=AXIS2_PLACEMENT_3D('',#1262,#1121,#1122);
#921=AXIS2_PLACEMENT_3D('',#1263,#1123,#1124);
#922=AXIS2_PLACEMENT_3D('',#1264,#1125,#1126);
#923=AXIS2_PLACEMENT_3D('',#1265,#1127,#1128);
#924=AXIS2_PLACEMENT_3D('',#1266,#1129,#1130);
#925=AXIS2_PLACEMENT_3D('',#1267,#1131,#1132);
#926=AXIS2_PLACEMENT_3D('',#1268,#1133,#1134);
#927=DIRECTION('axis',(0.,0.,1.));
#928=DIRECTION('refdir',(1.,0.,0.));
#929=DIRECTION('axis',(0.,0.,1.));
#930=DIRECTION('refdir',(1.,0.,0.));
#931=DIRECTION('center_axis',(0.,0.,-1.));
#932=DIRECTION('ref_axis',(-1.,0.,0.));
#933=DIRECTION('center_axis',(0.,0.,1.));
#934=DIRECTION('ref_axis',(-1.,0.,0.));
#935=DIRECTION('center_axis',(0.,0.,-1.));
#936=DIRECTION('ref_axis',(-1.,0.,0.));
#937=DIRECTION('',(0.,0.,1.));
#938=DIRECTION('center_axis',(0.,0.,1.));
#939=DIRECTION('ref_axis',(1.,0.,0.));
#940=DIRECTION('center_axis',(0.,0.,1.));
#941=DIRECTION('ref_axis',(1.,0.,0.));
#942=DIRECTION('center_axis',(0.,0.,1.));
#943=DIRECTION('ref_axis',(1.,0.,0.));
#944=DIRECTION('center_axis',(0.,0.,-1.));
#945=DIRECTION('ref_axis',(-1.,0.,0.));
#946=DIRECTION('',(-0.707106781186538,8.65956056235481E-17,0.707106781186557));
#947=DIRECTION('axis',(0.,0.,1.));
#948=DIRECTION('refdir',(1.,0.,0.));
#949=DIRECTION('center_axis',(0.,0.,1.));
#950=DIRECTION('ref_axis',(1.,0.,0.));
#951=DIRECTION('center_axis',(0.,0.,1.));
#952=DIRECTION('ref_axis',(1.,0.,0.));
#953=DIRECTION('center_axis',(0.,0.,1.));
#954=DIRECTION('ref_axis',(1.,0.,0.));
#955=DIRECTION('',(0.,0.,-1.));
#956=DIRECTION('center_axis',(0.,0.,1.));
#957=DIRECTION('ref_axis',(1.,0.,0.));
#958=DIRECTION('center_axis',(6.12323399573677E-17,0.,1.));
#959=DIRECTION('ref_axis',(1.,0.,0.));
#960=DIRECTION('center_axis',(0.,0.,1.));
#961=DIRECTION('ref_axis',(1.,0.,0.));
#962=DIRECTION('center_axis',(1.22464679914735E-16,-1.,0.));
#963=DIRECTION('ref_axis',(-1.,-1.22464679914735E-16,0.));
#964=DIRECTION('center_axis',(0.,0.,1.));
#965=DIRECTION('ref_axis',(1.,0.,0.));
#966=DIRECTION('center_axis',(0.,0.,1.));
#967=DIRECTION('ref_axis',(1.,0.,0.));
#968=DIRECTION('center_axis',(0.,0.,1.));
#969=DIRECTION('ref_axis',(1.,0.,0.));
#970=DIRECTION('center_axis',(0.,0.,1.));
#971=DIRECTION('ref_axis',(1.,0.,0.));
#972=DIRECTION('',(0.707106781186548,8.65956056235493E-17,-0.707106781186548));
#973=DIRECTION('center_axis',(0.,0.,-1.));
#974=DIRECTION('ref_axis',(-1.,0.,0.));
#975=DIRECTION('',(-0.70710678118653,8.65956056235472E-17,0.707106781186565));
#976=DIRECTION('axis',(0.,0.,1.));
#977=DIRECTION('refdir',(1.,0.,0.));
#978=DIRECTION('center_axis',(0.,1.,0.));
#979=DIRECTION('ref_axis',(-1.,0.,0.));
#980=DIRECTION('center_axis',(0.,1.,0.));
#981=DIRECTION('ref_axis',(-1.,0.,0.));
#982=DIRECTION('',(0.,-1.,0.));
#983=DIRECTION('center_axis',(0.,1.,0.));
#984=DIRECTION('ref_axis',(-1.,0.,0.));
#985=DIRECTION('center_axis',(0.,1.,0.));
#986=DIRECTION('ref_axis',(0.,0.,1.));
#987=DIRECTION('center_axis',(0.,1.,0.));
#988=DIRECTION('ref_axis',(0.,0.,1.));
#989=DIRECTION('axis',(0.,0.,1.));
#990=DIRECTION('refdir',(1.,0.,0.));
#991=DIRECTION('center_axis',(0.,1.,0.));
#992=DIRECTION('ref_axis',(-1.,0.,0.));
#993=DIRECTION('center_axis',(0.,1.,0.));
#994=DIRECTION('ref_axis',(-1.,0.,0.));
#995=DIRECTION('',(0.,-1.,0.));
#996=DIRECTION('center_axis',(0.,1.,0.));
#997=DIRECTION('ref_axis',(-1.,0.,0.));
#998=DIRECTION('center_axis',(0.,1.,0.));
#999=DIRECTION('ref_axis',(0.,0.,1.));
#1000=DIRECTION('center_axis',(0.,1.,0.));
#1001=DIRECTION('ref_axis',(0.,0.,1.));
#1002=DIRECTION('axis',(0.,0.,1.));
#1003=DIRECTION('refdir',(1.,0.,0.));
#1004=DIRECTION('center_axis',(0.,1.,0.));
#1005=DIRECTION('ref_axis',(-1.,0.,0.));
#1006=DIRECTION('center_axis',(0.,1.,0.));
#1007=DIRECTION('ref_axis',(-1.,0.,0.));
#1008=DIRECTION('',(0.,-1.,0.));
#1009=DIRECTION('center_axis',(0.,1.,0.));
#1010=DIRECTION('ref_axis',(-1.,0.,0.));
#1011=DIRECTION('center_axis',(0.,1.,0.));
#1012=DIRECTION('ref_axis',(0.,0.,1.));
#1013=DIRECTION('center_axis',(0.,1.,0.));
#1014=DIRECTION('ref_axis',(0.,0.,1.));
#1015=DIRECTION('axis',(0.,0.,1.));
#1016=DIRECTION('refdir',(1.,0.,0.));
#1017=DIRECTION('center_axis',(0.,1.,0.));
#1018=DIRECTION('ref_axis',(-1.,0.,0.));
#1019=DIRECTION('center_axis',(0.,1.,0.));
#1020=DIRECTION('ref_axis',(-1.,0.,0.));
#1021=DIRECTION('',(0.,-1.,0.));
#1022=DIRECTION('center_axis',(0.,1.,0.));
#1023=DIRECTION('ref_axis',(-1.,0.,0.));
#1024=DIRECTION('center_axis',(0.,1.,0.));
#1025=DIRECTION('ref_axis',(0.,0.,1.));
#1026=DIRECTION('center_axis',(0.,1.,0.));
#1027=DIRECTION('ref_axis',(0.,0.,1.));
#1028=DIRECTION('axis',(0.,0.,1.));
#1029=DIRECTION('refdir',(1.,0.,0.));
#1030=DIRECTION('center_axis',(0.,1.,0.));
#1031=DIRECTION('ref_axis',(-1.,0.,0.));
#1032=DIRECTION('center_axis',(0.,1.,0.));
#1033=DIRECTION('ref_axis',(-1.,0.,0.));
#1034=DIRECTION('',(0.,-1.,0.));
#1035=DIRECTION('center_axis',(0.,1.,0.));
#1036=DIRECTION('ref_axis',(-1.,0.,0.));
#1037=DIRECTION('center_axis',(0.,1.,0.));
#1038=DIRECTION('ref_axis',(0.,0.,1.));
#1039=DIRECTION('center_axis',(0.,1.,0.));
#1040=DIRECTION('ref_axis',(0.,0.,1.));
#1041=DIRECTION('axis',(0.,0.,1.));
#1042=DIRECTION('refdir',(1.,0.,0.));
#1043=DIRECTION('center_axis',(0.,1.,0.));
#1044=DIRECTION('ref_axis',(-1.,0.,0.));
#1045=DIRECTION('center_axis',(0.,1.,0.));
#1046=DIRECTION('ref_axis',(-1.,0.,0.));
#1047=DIRECTION('',(0.,-1.,0.));
#1048=DIRECTION('center_axis',(0.,1.,0.));
#1049=DIRECTION('ref_axis',(-1.,0.,0.));
#1050=DIRECTION('center_axis',(0.,1.,0.));
#1051=DIRECTION('ref_axis',(0.,0.,1.));
#1052=DIRECTION('center_axis',(0.,1.,0.));
#1053=DIRECTION('ref_axis',(0.,0.,1.));
#1054=DIRECTION('axis',(0.,0.,1.));
#1055=DIRECTION('refdir',(1.,0.,0.));
#1056=DIRECTION('center_axis',(0.,1.,0.));
#1057=DIRECTION('ref_axis',(0.,0.,1.));
#1058=DIRECTION('center_axis',(0.,-1.,0.));
#1059=DIRECTION('ref_axis',(1.,0.,0.));
#1060=DIRECTION('center_axis',(0.,-1.,0.));
#1061=DIRECTION('ref_axis',(0.,0.,-1.));
#1062=DIRECTION('center_axis',(0.,1.,0.));
#1063=DIRECTION('ref_axis',(1.,0.,0.));
#1064=DIRECTION('center_axis',(0.,-1.,0.));
#1065=DIRECTION('ref_axis',(1.,0.,0.));
#1066=DIRECTION('',(-0.0333148302326385,-0.999444906979154,4.07989002085382E-18));
#1067=DIRECTION('',(-6.44820547657277E-17,6.12323399573559E-17,1.));
#1068=DIRECTION('',(1.,-7.90093500385419E-30,6.44820547657277E-17));
#1069=DIRECTION('',(0.078459095727845,5.62393470661844E-17,-0.996917333733128));
#1070=DIRECTION('',(0.996917333733128,-6.58478151108945E-17,0.078459095727845));
#1071=DIRECTION('',(-0.579577229572508,-0.814917317867927,-1.66634885223626E-16));
#1072=DIRECTION('',(0.814917317867927,-0.579577229572508,9.86388298184651E-15));
#1073=DIRECTION('',(2.22044604925031E-16,-5.52194552959107E-31,-1.));
#1074=DIRECTION('',(-1.,1.60410219698042E-15,-2.22044604925031E-16));
#1075=DIRECTION('',(-2.22044604925031E-16,-1.51142580932761E-32,1.));
#1076=DIRECTION('',(1.,6.1232339957368E-17,2.22044604925031E-16));
#1077=DIRECTION('',(-2.22044604925031E-16,-1.11134395603655E-32,1.));
#1078=DIRECTION('',(1.,6.12323399573679E-17,2.22044604925031E-16));
#1079=DIRECTION('',(2.22044604925031E-16,1.27474707475565E-32,-1.));
#1080=DIRECTION('',(-1.,-6.12323399573679E-17,-2.22044604925031E-16));
#1081=DIRECTION('',(-0.0390213041645237,-0.999157938515196,0.0126787902957564));
#1082=DIRECTION('',(0.950255668232904,-0.0410294272695104,-0.30875678306585));
#1083=DIRECTION('',(0.312293207730212,-0.944743216609309,0.0996654758493126));
#1084=DIRECTION('',(0.900020472139302,0.32781130955276,0.287233171934322));
#1085=DIRECTION('',(0.0795840032765385,-0.99682816293606,5.67077417818682E-15));
#1086=DIRECTION('',(0.99682816293606,0.0795840032765385,-4.28775902929414E-16));
#1087=DIRECTION('',(0.981307416673011,0.192446756227643,-6.65447938762065E-16));
#1088=DIRECTION('',(0.192446756227643,-0.981307416673011,2.72594506750882E-16));
#1089=DIRECTION('',(-0.156269787080955,0.986408454769916,0.0507751317487249));
#1090=DIRECTION('',(0.938130188637562,0.164311777905381,-0.304816975919036));
#1091=DIRECTION('',(0.31584003905367,-0.948812452347974,1.26198872169079E-15));
#1092=DIRECTION('',(0.948812452347974,0.31584003905367,6.5516112616165E-15));
#1093=DIRECTION('',(-2.51940159107153E-14,1.,2.77498683049021E-30));
#1094=DIRECTION('',(1.,2.51940159107153E-14,-1.09605016109463E-16));
#1095=DIRECTION('',(0.293892626146556,0.951056516295044,0.095491502812633));
#1096=DIRECTION('',(0.904508497187371,-0.309016994375284,0.293892626146198));
#1097=DIRECTION('',(0.161952710141519,-0.986465081329944,-0.0256507893548076));
#1098=DIRECTION('',(0.97432005923382,0.163971471045141,-0.154317137278717));
#1099=DIRECTION('',(-0.424387117992529,-0.905480852410472,-2.00196253375156E-15));
#1100=DIRECTION('',(0.905480852410472,-0.424387117992529,4.27142734711163E-15));
#1101=DIRECTION('',(-5.05321549803496E-16,1.,6.89820873411277E-32));
#1102=DIRECTION('',(1.,5.05321549803496E-16,-1.94147300674097E-15));
#1103=DIRECTION('',(0.154508497187384,0.987688340595152,0.0244717418524091));
#1104=DIRECTION('',(0.975528258147591,-0.15643446504014,0.154508497187476));
#1105=DIRECTION('',(0.700826632639372,-0.713331641652996,1.55614772765355E-16));
#1106=DIRECTION('',(0.713331641652996,0.700826632639372,1.5839144255137E-16));
#1107=DIRECTION('',(0.894978138672608,0.446109999101246,1.98725067218106E-16));
#1108=DIRECTION('',(0.446109999101246,-0.894978138672608,9.90563185035455E-17));
#1109=DIRECTION('',(-0.152847652481553,-0.987959865769389,0.0239353036289309));
#1110=DIRECTION('',(0.976064696371069,-0.154710386299469,-0.152847652481553));
#1111=DIRECTION('',(0.154508497187474,-0.987688340595138,0.0244717418524234));
#1112=DIRECTION('',(0.975528258147577,0.156434465040231,0.154508497187474));
#1113=DIRECTION('',(-0.942984568755037,-0.332836450963349,-2.0938463601962E-16));
#1114=DIRECTION('',(0.332836450963349,-0.942984568755037,7.39045382588086E-17));
#1115=DIRECTION('',(-0.298360870463833,0.954453137129353,-6.62494216072324E-17));
#1116=DIRECTION('',(0.954453137129353,0.298360870463833,2.11931169753351E-16));
#1117=DIRECTION('',(0.16578087004652,-0.985812998131149,-0.0262571103188328));
#1118=DIRECTION('',(0.973676004261272,0.167847349444894,-0.15421512899235));
#1119=DIRECTION('',(0.0328837866781919,0.999459182044821,7.3016674213984E-18));
#1120=DIRECTION('',(-0.999459182044821,0.0328837866781919,-2.21924519215844E-16));
#1121=DIRECTION('',(-0.938024667171211,0.346568497960127,-2.08283316631973E-16));
#1122=DIRECTION('',(0.346568497960127,0.938024667171211,7.69536652090209E-17));
#1123=DIRECTION('',(0.284049536729376,-0.957753542484954,0.044989026899326));
#1124=DIRECTION('',(0.945962007076079,0.287590249934732,0.14982566305902));
#1125=DIRECTION('',(0.189513149039931,-0.981878183045621,1.11721804549203E-16));
#1126=DIRECTION('',(0.981878183045621,0.189513149039931,4.69673695849222E-16));
#1127=DIRECTION('',(-0.995249441102403,-0.0973578450118662,-2.15028320288157E-16));
#1128=DIRECTION('',(0.0973578450118662,-0.995249441102403,8.25592363519744E-17));
#1129=DIRECTION('',(0.970065325425674,-0.242844115446065,2.30267685369255E-16));
#1130=DIRECTION('',(-0.242844115446065,-0.970065325425674,5.47714411472927E-18));
#1131=DIRECTION('',(0.125330315942516,0.992115069891466,-3.07464723346656E-17));
#1132=DIRECTION('',(0.992115069891466,-0.125330315942516,-1.75484145551619E-15));
#1133=DIRECTION('',(0.101896689959536,0.994794986203333,-3.82880145178538E-17));
#1134=DIRECTION('',(0.994794986203333,-0.101896689959536,2.27128232453054E-16));
#1135=CARTESIAN_POINT('',(0.,0.,0.));
#1136=CARTESIAN_POINT('',(0.,0.,0.));
#1137=CARTESIAN_POINT('Origin',(-2.39626795771806,0.818847383912031,0.786905272112334));
#1138=CARTESIAN_POINT('',(-1.89626795771806,0.818847383912031,0.786905272112334));
#1139=CARTESIAN_POINT('Origin',(-2.39626795771806,0.818847383912031,0.786905272112334));
#1140=CARTESIAN_POINT('Origin',(-2.39626795771806,0.818847383912031,0.826275350852491));
#1141=CARTESIAN_POINT('',(-1.89626795771806,0.818847383912031,0.816432831167452));
#1142=CARTESIAN_POINT('',(-1.89626795771806,0.818847383912031,0.826275350852491));
#1143=CARTESIAN_POINT('Origin',(-2.39626795771806,0.818847383912031,0.816432831167452));
#1144=CARTESIAN_POINT('Origin',(-2.39626795771806,0.818847383912031,0.826275350852491));
#1145=CARTESIAN_POINT('',(-1.9061104774031,0.818847383912031,0.826275350852491));
#1146=CARTESIAN_POINT('Origin',(-2.39626795771806,0.818847383912031,0.826275350852491));
#1147=CARTESIAN_POINT('Origin',(-2.39626795771806,0.818847383912031,0.826275350852491));
#1148=CARTESIAN_POINT('',(-1.9061104774031,0.818847383912031,0.826275350852491));
#1149=CARTESIAN_POINT('',(0.,0.,0.));
#1150=CARTESIAN_POINT('Origin',(0.,0.,4.30813204540037));
#1151=CARTESIAN_POINT('',(12.7,0.,-0.19302513554932));
#1152=CARTESIAN_POINT('',(-12.7,-1.55530143491714E-15,-0.19302513554932));
#1153=CARTESIAN_POINT('Origin',(0.,0.,-0.19302513554932));
#1154=CARTESIAN_POINT('Origin',(0.,0.,-0.19302513554932));
#1155=CARTESIAN_POINT('',(-12.7,-1.55530143491714E-15,-1.89322330470336));
#1156=CARTESIAN_POINT('',(-12.7,-1.55530143491714E-15,4.30813204540037));
#1157=CARTESIAN_POINT('Origin',(0.,0.,-1.89322330470336));
#1158=CARTESIAN_POINT('Origin',(0.,0.,-36.56));
#1159=CARTESIAN_POINT('',(12.5232233047034,0.,-0.0162484402526754));
#1160=CARTESIAN_POINT('',(-12.5232233047034,-1.53365253351125E-15,-0.0162484402526752));
#1161=CARTESIAN_POINT('Origin',(0.,0.,-0.0162484402526754));
#1162=CARTESIAN_POINT('',(-2.36540529255311E-15,-2.89678602021138E-31,2.07));
#1163=CARTESIAN_POINT('Origin',(0.,0.,-36.56));
#1164=CARTESIAN_POINT('Origin',(0.,0.,-0.0162484402526754));
#1165=CARTESIAN_POINT('Origin',(0.,0.,-2.07));
#1166=CARTESIAN_POINT('',(-12.5232233047034,-1.53365253351125E-15,-2.07));
#1167=CARTESIAN_POINT('Origin',(0.,0.,-2.07));
#1168=CARTESIAN_POINT('Origin',(0.,0.,-2.07));
#1169=CARTESIAN_POINT('',(-12.5232233047034,-1.53365253351125E-15,-2.07));
#1170=CARTESIAN_POINT('Origin',(0.,0.,-0.0162484402526754));
#1171=CARTESIAN_POINT('',(12.5232233047034,-1.53365253351125E-15,-0.0162484402526754));
#1172=CARTESIAN_POINT('',(0.,0.,0.));
#1173=CARTESIAN_POINT('Origin',(0.,0.,0.));
#1174=CARTESIAN_POINT('',(1.,52.498,-1.22464679914735E-16));
#1175=CARTESIAN_POINT('Origin',(0.,52.498,0.));
#1176=CARTESIAN_POINT('',(1.,0.,-1.22464679914735E-16));
#1177=CARTESIAN_POINT('',(1.,0.,-1.22464679914735E-16));
#1178=CARTESIAN_POINT('Origin',(0.,0.,0.));
#1179=CARTESIAN_POINT('Origin',(0.,52.498,0.));
#1180=CARTESIAN_POINT('Origin',(0.,0.,0.));
#1181=CARTESIAN_POINT('',(0.,0.,0.));
#1182=CARTESIAN_POINT('Origin',(0.,0.,0.));
#1183=CARTESIAN_POINT('',(1.,26.,-1.22464679914735E-16));
#1184=CARTESIAN_POINT('Origin',(0.,26.,0.));
#1185=CARTESIAN_POINT('',(1.,-0.25,-1.22464679914735E-16));
#1186=CARTESIAN_POINT('',(1.,0.,-1.22464679914735E-16));
#1187=CARTESIAN_POINT('Origin',(0.,-0.25,0.));
#1188=CARTESIAN_POINT('Origin',(0.,26.,0.));
#1189=CARTESIAN_POINT('Origin',(0.,-0.25,0.));
#1190=CARTESIAN_POINT('',(0.,0.,0.));
#1191=CARTESIAN_POINT('Origin',(0.,0.,0.));
#1192=CARTESIAN_POINT('',(1.,50.636,-1.22464679914735E-16));
#1193=CARTESIAN_POINT('Origin',(0.,50.636,0.));
#1194=CARTESIAN_POINT('',(1.,0.,-1.22464679914735E-16));
#1195=CARTESIAN_POINT('',(1.,0.,-1.22464679914735E-16));
#1196=CARTESIAN_POINT('Origin',(0.,0.,0.));
#1197=CARTESIAN_POINT('Origin',(0.,50.636,0.));
#1198=CARTESIAN_POINT('Origin',(0.,0.,0.));
#1199=CARTESIAN_POINT('',(0.,0.,0.));
#1200=CARTESIAN_POINT('Origin',(0.,0.,0.));
#1201=CARTESIAN_POINT('',(1.,25.07,-1.22464679914735E-16));
#1202=CARTESIAN_POINT('Origin',(0.,25.07,0.));
#1203=CARTESIAN_POINT('',(1.,-0.25,-1.22464679914735E-16));
#1204=CARTESIAN_POINT('',(1.,0.,-1.22464679914735E-16));
#1205=CARTESIAN_POINT('Origin',(0.,-0.25,0.));
#1206=CARTESIAN_POINT('Origin',(0.,25.07,0.));
#1207=CARTESIAN_POINT('Origin',(0.,-0.25,0.));
#1208=CARTESIAN_POINT('',(0.,0.,0.));
#1209=CARTESIAN_POINT('Origin',(0.,0.,0.));
#1210=CARTESIAN_POINT('',(1.,24.75,-1.22464679914735E-16));
#1211=CARTESIAN_POINT('Origin',(0.,24.75,0.));
#1212=CARTESIAN_POINT('',(1.,-0.25,-1.22464679914735E-16));
#1213=CARTESIAN_POINT('',(1.,0.,-1.22464679914735E-16));
#1214=CARTESIAN_POINT('Origin',(0.,-0.25,0.));
#1215=CARTESIAN_POINT('Origin',(0.,24.75,0.));
#1216=CARTESIAN_POINT('Origin',(0.,-0.25,0.));
#1217=CARTESIAN_POINT('',(0.,0.,0.));
#1218=CARTESIAN_POINT('Origin',(0.,0.,0.));
#1219=CARTESIAN_POINT('',(1.,50.,-1.22464679914735E-16));
#1220=CARTESIAN_POINT('Origin',(0.,50.,0.));
#1221=CARTESIAN_POINT('',(1.,0.,-1.22464679914735E-16));
#1222=CARTESIAN_POINT('',(1.,0.,-1.22464679914735E-16));
#1223=CARTESIAN_POINT('Origin',(0.,0.,0.));
#1224=CARTESIAN_POINT('Origin',(0.,50.,0.));
#1225=CARTESIAN_POINT('Origin',(0.,0.,0.));
#1226=CARTESIAN_POINT('',(0.,0.,0.));
#1227=CARTESIAN_POINT('Origin',(0.,25.,0.));
#1228=CARTESIAN_POINT('',(-0.166666666666666,25.,-2.04107799857892E-17));
#1229=CARTESIAN_POINT('Origin',(0.,25.,0.));
#1230=CARTESIAN_POINT('Origin',(1.,1.83697019872103E-16,0.));
#1231=CARTESIAN_POINT('',(-1.,-4.92116600041237E-34,1.22464679914735E-16));
#1232=CARTESIAN_POINT('Origin',(0.,0.,0.));
#1233=CARTESIAN_POINT('Origin',(0.,0.,0.));
#1234=CARTESIAN_POINT('',(-1.,0.,1.22464679914735E-16));
#1235=CARTESIAN_POINT('',(60.8652061260386,-20.7987235513656,-1.90410473430134));
#1236=CARTESIAN_POINT('',(59.0309270602854,20.7987235513656,244.781414991702));
#1237=CARTESIAN_POINT('',(7.99999999999999,-1.01334946264968E-14,44.083289177352));
#1238=CARTESIAN_POINT('',(-9.78845652918101E-15,2.69932294934656E-15,44.0832891773519));
#1239=CARTESIAN_POINT('',(-2.08906867754326E-14,5.76093994721494E-15,94.0832891773519));
#1240=CARTESIAN_POINT('',(-4.30951472679357E-14,1.18841739429517E-14,194.083289177352));
#1241=CARTESIAN_POINT('',(-3.19929170216841E-14,8.82255694508332E-15,144.083289177352));
#1242=CARTESIAN_POINT('',(0.0772542485940138,1.61047702243048E-16,19.3210533064265));
#1243=CARTESIAN_POINT('',(-0.0760082652314862,2.39342335052978E-15,19.3214545476657));
#1244=CARTESIAN_POINT('',(-8.00000000000001,1.57088525108488E-14,44.0832891773519));
#1245=CARTESIAN_POINT('',(-8.00000000000002,5.27108122755599E-15,94.0832891773518));
#1246=CARTESIAN_POINT('',(8.00027881838366,7.85424511283231E-15,144.084147292101));
#1247=CARTESIAN_POINT('',(7.99999999999997,9.31241566474227E-15,144.083289177352));
#1248=CARTESIAN_POINT('',(7.99999999999996,1.23740326626106E-14,194.083289177352));
#1249=CARTESIAN_POINT('',(-0.0344418537450173,1.61056043560966E-14,218.810758601015));
#1250=CARTESIAN_POINT('',(-3.96089138373999,1.05464430489271E-14,194.330211262501));
#1251=CARTESIAN_POINT('',(-4.00000000000004,9.08027043060551E-15,144.083289177352));
#1252=CARTESIAN_POINT('',(-4.00000000000004,1.16392445831222E-14,194.083289177352));
#1253=CARTESIAN_POINT('',(-4.00000000000004,9.12590475369513E-15,144.083289177352));
#1254=CARTESIAN_POINT('',(3.99999999999999,-3.71708583857513E-15,44.0832891773519));
#1255=CARTESIAN_POINT('',(3.99999999999998,6.00586930704441E-15,94.0832891773519));
#1256=CARTESIAN_POINT('',(0.038677596574867,5.33372822511693E-16,19.3302791437943));
#1257=CARTESIAN_POINT('',(-0.0391086162600398,2.21222492392886E-15,19.3302112625007));
#1258=CARTESIAN_POINT('',(-4.00000000000001,9.67001577420929E-15,44.0832891773519));
#1259=CARTESIAN_POINT('',(-4.00000000000002,6.1121716576133E-15,94.0832891773519));
#1260=CARTESIAN_POINT('',(-3.9211987941931,8.58245276747688E-15,94.0708082924732));
#1261=CARTESIAN_POINT('',(3.99999999999997,9.0674863049128E-15,144.083289177352));
#1262=CARTESIAN_POINT('',(3.99999999999996,1.19931633372464E-14,194.083289177352));
#1263=CARTESIAN_POINT('',(3.96089138373989,1.21267085906951E-14,194.330211262501));
#1264=CARTESIAN_POINT('',(-4.31506584191669E-14,1.1899482027941E-14,194.333289177352));
#1265=CARTESIAN_POINT('',(-3.19929170216841E-14,8.82255694508332E-15,144.083289177352));
#1266=CARTESIAN_POINT('',(-4.30951472679357E-14,1.18841739429517E-14,194.083289177352));
#1267=CARTESIAN_POINT('',(-3.19929170216841E-14,8.82255694508331E-15,144.083289177352));
#1268=CARTESIAN_POINT('',(-2.08906867754326E-14,5.76093994721494E-15,94.0832891773518));
#1269=UNCERTAINTY_MEASURE_WITH_UNIT(LENGTH_MEASURE(0.01),#1291,
'DISTANCE_ACCURACY_VALUE',
'Maximum model space distance between geometric entities at asserted c
onnectivities');
#1270=UNCERTAINTY_MEASURE_WITH_UNIT(LENGTH_MEASURE(0.000393700787401575),
#625,'DISTANCE_ACCURACY_VALUE',
'Maximum model space distance between geometric entities at asserted c
onnectivities');
#1271=UNCERTAINTY_MEASURE_WITH_UNIT(LENGTH_MEASURE(0.01),#1291,
'DISTANCE_ACCURACY_VALUE',
'Maximum model space distance between geometric entities at asserted c
onnectivities');
#1272=UNCERTAINTY_MEASURE_WITH_UNIT(LENGTH_MEASURE(0.01),#1291,
'DISTANCE_ACCURACY_VALUE',
'Maximum model space distance between geometric entities at asserted c
onnectivities');
#1273=UNCERTAINTY_MEASURE_WITH_UNIT(LENGTH_MEASURE(0.01),#1291,
'DISTANCE_ACCURACY_VALUE',
'Maximum model space distance between geometric entities at asserted c
onnectivities');
#1274=UNCERTAINTY_MEASURE_WITH_UNIT(LENGTH_MEASURE(0.01),#1291,
'DISTANCE_ACCURACY_VALUE',
'Maximum model space distance between geometric entities at asserted c
onnectivities');
#1275=UNCERTAINTY_MEASURE_WITH_UNIT(LENGTH_MEASURE(0.01),#1291,
'DISTANCE_ACCURACY_VALUE',
'Maximum model space distance between geometric entities at asserted c
onnectivities');
#1276=UNCERTAINTY_MEASURE_WITH_UNIT(LENGTH_MEASURE(0.01),#1291,
'DISTANCE_ACCURACY_VALUE',
'Maximum model space distance between geometric entities at asserted c
onnectivities');
#1277=UNCERTAINTY_MEASURE_WITH_UNIT(LENGTH_MEASURE(0.01),#1291,
'DISTANCE_ACCURACY_VALUE',
'Maximum model space distance between geometric entities at asserted c
onnectivities');
#1278=UNCERTAINTY_MEASURE_WITH_UNIT(LENGTH_MEASURE(0.01),#1291,
'DISTANCE_ACCURACY_VALUE',
'Maximum model space distance between geometric entities at asserted c
onnectivities');
#1279=UNCERTAINTY_MEASURE_WITH_UNIT(LENGTH_MEASURE(0.01),#1291,
'DISTANCE_ACCURACY_VALUE',
'Maximum model space distance between geometric entities at asserted c
onnectivities');
#1280=(
GEOMETRIC_REPRESENTATION_CONTEXT(3)
GLOBAL_UNCERTAINTY_ASSIGNED_CONTEXT((#1269))
GLOBAL_UNIT_ASSIGNED_CONTEXT((#1291,#1293,#1294))
REPRESENTATION_CONTEXT('','3D')
);
#1281=(
GEOMETRIC_REPRESENTATION_CONTEXT(3)
GLOBAL_UNCERTAINTY_ASSIGNED_CONTEXT((#1270))
GLOBAL_UNIT_ASSIGNED_CONTEXT((#625,#1293,#1294))
REPRESENTATION_CONTEXT('','3D')
);
#1282=(
GEOMETRIC_REPRESENTATION_CONTEXT(3)
GLOBAL_UNCERTAINTY_ASSIGNED_CONTEXT((#1271))
GLOBAL_UNIT_ASSIGNED_CONTEXT((#1291,#1293,#1294))
REPRESENTATION_CONTEXT('','3D')
);
#1283=(
GEOMETRIC_REPRESENTATION_CONTEXT(3)
GLOBAL_UNCERTAINTY_ASSIGNED_CONTEXT((#1272))
GLOBAL_UNIT_ASSIGNED_CONTEXT((#1291,#1293,#1294))
REPRESENTATION_CONTEXT('','3D')
);
#1284=(
GEOMETRIC_REPRESENTATION_CONTEXT(3)
GLOBAL_UNCERTAINTY_ASSIGNED_CONTEXT((#1273))
GLOBAL_UNIT_ASSIGNED_CONTEXT((#1291,#1293,#1294))
REPRESENTATION_CONTEXT('','3D')
);
#1285=(
GEOMETRIC_REPRESENTATION_CONTEXT(3)
GLOBAL_UNCERTAINTY_ASSIGNED_CONTEXT((#1274))
GLOBAL_UNIT_ASSIGNED_CONTEXT((#1291,#1293,#1294))
REPRESENTATION_CONTEXT('','3D')
);
#1286=(
GEOMETRIC_REPRESENTATION_CONTEXT(3)
GLOBAL_UNCERTAINTY_ASSIGNED_CONTEXT((#1275))
GLOBAL_UNIT_ASSIGNED_CONTEXT((#1291,#1293,#1294))
REPRESENTATION_CONTEXT('','3D')
);
#1287=(
GEOMETRIC_REPRESENTATION_CONTEXT(3)
GLOBAL_UNCERTAINTY_ASSIGNED_CONTEXT((#1276))
GLOBAL_UNIT_ASSIGNED_CONTEXT((#1291,#1293,#1294))
REPRESENTATION_CONTEXT('','3D')
);
#1288=(
GEOMETRIC_REPRESENTATION_CONTEXT(3)
GLOBAL_UNCERTAINTY_ASSIGNED_CONTEXT((#1277))
GLOBAL_UNIT_ASSIGNED_CONTEXT((#1291,#1293,#1294))
REPRESENTATION_CONTEXT('','3D')
);
#1289=(
GEOMETRIC_REPRESENTATION_CONTEXT(3)
GLOBAL_UNCERTAINTY_ASSIGNED_CONTEXT((#1278))
GLOBAL_UNIT_ASSIGNED_CONTEXT((#1291,#1293,#1294))
REPRESENTATION_CONTEXT('','3D')
);
#1290=(
GEOMETRIC_REPRESENTATION_CONTEXT(3)
GLOBAL_UNCERTAINTY_ASSIGNED_CONTEXT((#1279))
GLOBAL_UNIT_ASSIGNED_CONTEXT((#1291,#1293,#1294))
REPRESENTATION_CONTEXT('','3D')
);
#1291=(
LENGTH_UNIT()
NAMED_UNIT(*)
SI_UNIT(.MILLI.,.METRE.)
);
#1292=(
LENGTH_UNIT()
NAMED_UNIT(*)
SI_UNIT(.CENTI.,.METRE.)
);
#1293=(
NAMED_UNIT(*)
PLANE_ANGLE_UNIT()
SI_UNIT($,.RADIAN.)
);
#1294=(
NAMED_UNIT(*)
SI_UNIT($,.STERADIAN.)
SOLID_ANGLE_UNIT()
);
#1295=SHAPE_DEFINITION_REPRESENTATION(#1305,#1349);
#1296=SHAPE_DEFINITION_REPRESENTATION(#1306,#1350);
#1297=SHAPE_DEFINITION_REPRESENTATION(#1307,#1351);
#1298=SHAPE_DEFINITION_REPRESENTATION(#1308,#1352);
#1299=SHAPE_DEFINITION_REPRESENTATION(#1309,#1353);
#1300=SHAPE_DEFINITION_REPRESENTATION(#1310,#1354);
#1301=SHAPE_DEFINITION_REPRESENTATION(#1311,#1355);
#1302=SHAPE_DEFINITION_REPRESENTATION(#1312,#1356);
#1303=SHAPE_DEFINITION_REPRESENTATION(#1313,#1357);
#1304=SHAPE_DEFINITION_REPRESENTATION(#1314,#1358);
#1305=PRODUCT_DEFINITION_SHAPE('',$,#1360);
#1306=PRODUCT_DEFINITION_SHAPE('',$,#1361);
#1307=PRODUCT_DEFINITION_SHAPE('',$,#1362);
#1308=PRODUCT_DEFINITION_SHAPE('',$,#1363);
#1309=PRODUCT_DEFINITION_SHAPE('',$,#1364);
#1310=PRODUCT_DEFINITION_SHAPE('',$,#1365);
#1311=PRODUCT_DEFINITION_SHAPE('',$,#1366);
#1312=PRODUCT_DEFINITION_SHAPE('',$,#1367);
#1313=PRODUCT_DEFINITION_SHAPE('',$,#1368);
#1314=PRODUCT_DEFINITION_SHAPE('',$,#1369);
#1315=PRODUCT_DEFINITION_SHAPE($,$,#113);
#1316=PRODUCT_DEFINITION_SHAPE($,$,#114);
#1317=PRODUCT_DEFINITION_SHAPE($,$,#115);
#1318=PRODUCT_DEFINITION_SHAPE($,$,#116);
#1319=PRODUCT_DEFINITION_SHAPE($,$,#117);
#1320=PRODUCT_DEFINITION_SHAPE($,$,#118);
#1321=PRODUCT_DEFINITION_SHAPE($,$,#119);
#1322=PRODUCT_DEFINITION_SHAPE($,$,#120);
#1323=PRODUCT_DEFINITION_SHAPE($,$,#121);
#1324=PRODUCT_DEFINITION_SHAPE($,$,#122);
#1325=PRODUCT_DEFINITION_SHAPE($,$,#123);
#1326=PRODUCT_DEFINITION_SHAPE($,$,#124);
#1327=PRODUCT_DEFINITION_SHAPE($,$,#125);
#1328=PRODUCT_DEFINITION_SHAPE($,$,#126);
#1329=PRODUCT_DEFINITION_SHAPE($,$,#127);
#1330=PRODUCT_DEFINITION_SHAPE($,$,#128);
#1331=PRODUCT_DEFINITION_SHAPE($,$,#129);
#1332=PRODUCT_DEFINITION_SHAPE($,$,#130);
#1333=PRODUCT_DEFINITION_SHAPE($,$,#131);
#1334=PRODUCT_DEFINITION_SHAPE($,$,#132);
#1335=PRODUCT_DEFINITION_SHAPE($,$,#133);
#1336=PRODUCT_DEFINITION_SHAPE($,$,#134);
#1337=PRODUCT_DEFINITION_SHAPE($,$,#135);
#1338=PRODUCT_DEFINITION_SHAPE($,$,#136);
#1339=PRODUCT_DEFINITION_SHAPE($,$,#137);
#1340=PRODUCT_DEFINITION_SHAPE($,$,#138);
#1341=PRODUCT_DEFINITION_SHAPE($,$,#139);
#1342=PRODUCT_DEFINITION_SHAPE($,$,#140);
#1343=PRODUCT_DEFINITION_SHAPE($,$,#141);
#1344=PRODUCT_DEFINITION_SHAPE($,$,#142);
#1345=PRODUCT_DEFINITION_SHAPE($,$,#143);
#1346=PRODUCT_DEFINITION_SHAPE($,$,#144);
#1347=PRODUCT_DEFINITION_SHAPE($,$,#145);
#1348=PRODUCT_DEFINITION_SHAPE($,$,#146);
#1349=SHAPE_REPRESENTATION('',(#829,#893,#894,#895,#896,#897,#898,#899,
#900,#901,#902,#903,#904,#905,#906,#907,#908,#909,#910,#911,#912,#913,#914,
#915,#916,#917,#918,#919,#920,#921,#922,#923,#924,#925,#926),#1280);
#1350=SHAPE_REPRESENTATION('',(#830),#1281);
#1351=SHAPE_REPRESENTATION('',(#838),#1282);
#1352=SHAPE_REPRESENTATION('',(#851),#1283);
#1353=SHAPE_REPRESENTATION('',(#857),#1284);
#1354=SHAPE_REPRESENTATION('',(#863),#1285);
#1355=SHAPE_REPRESENTATION('',(#869),#1286);
#1356=SHAPE_REPRESENTATION('',(#875),#1287);
#1357=SHAPE_REPRESENTATION('',(#881),#1288);
#1358=SHAPE_REPRESENTATION('',(#887),#1289);
#1359=PRODUCT_DEFINITION_CONTEXT('part definition',#1391,'design');
#1360=PRODUCT_DEFINITION('MultiPass0V_outsideIn-DFMOD',
'MultiPass0V_outsideIn-DFMOD',#1370,#1359);
#1361=PRODUCT_DEFINITION('BB1-E02-Solidworks','BB1-E02-Solidworks',#1371,
#1359);
#1362=PRODUCT_DEFINITION('LA1608-AB-2LOOP_grid','LA1608-AB-2LOOP_grid',
#1372,#1359);
#1363=PRODUCT_DEFINITION('LOOP1_COLL_L','LOOP1_COLL_L',#1373,#1359);
#1364=PRODUCT_DEFINITION('LOOP1_COLL','LOOP1_COLL',#1374,#1359);
#1365=PRODUCT_DEFINITION('LOOP2_COLL_L','LOOP2_COLL_L',#1375,#1359);
#1366=PRODUCT_DEFINITION('LOOP2_COLL','LOOP2_COLL',#1376,#1359);
#1367=PRODUCT_DEFINITION('LOOP3_COLL','LOOP3_COLL',#1377,#1359);
#1368=PRODUCT_DEFINITION('LOOP3_COLL_L','LOOP3_COLL_L',#1378,#1359);
#1369=PRODUCT_DEFINITION('LaserBeamEntry2','LaserBeamEntry2',#1379,#1359);
#1370=PRODUCT_DEFINITION_FORMATION('',$,#1393);
#1371=PRODUCT_DEFINITION_FORMATION('',$,#1394);
#1372=PRODUCT_DEFINITION_FORMATION('',$,#1395);
#1373=PRODUCT_DEFINITION_FORMATION('',$,#1396);
#1374=PRODUCT_DEFINITION_FORMATION('',$,#1397);
#1375=PRODUCT_DEFINITION_FORMATION('',$,#1398);
#1376=PRODUCT_DEFINITION_FORMATION('',$,#1399);
#1377=PRODUCT_DEFINITION_FORMATION('',$,#1400);
#1378=PRODUCT_DEFINITION_FORMATION('',$,#1401);
#1379=PRODUCT_DEFINITION_FORMATION('',$,#1402);
#1380=PRODUCT_RELATED_PRODUCT_CATEGORY('MultiPass0V_outsideIn-DFMOD',
'MultiPass0V_outsideIn-DFMOD',(#1393));
#1381=PRODUCT_RELATED_PRODUCT_CATEGORY('BB1-E02-Solidworks',
'BB1-E02-Solidworks',(#1394));
#1382=PRODUCT_RELATED_PRODUCT_CATEGORY('LA1608-AB-2LOOP_grid',
'LA1608-AB-2LOOP_grid',(#1395));
#1383=PRODUCT_RELATED_PRODUCT_CATEGORY('LOOP1_COLL_L','LOOP1_COLL_L',(#1396));
#1384=PRODUCT_RELATED_PRODUCT_CATEGORY('LOOP1_COLL','LOOP1_COLL',(#1397));
#1385=PRODUCT_RELATED_PRODUCT_CATEGORY('LOOP2_COLL_L','LOOP2_COLL_L',(#1398));
#1386=PRODUCT_RELATED_PRODUCT_CATEGORY('LOOP2_COLL','LOOP2_COLL',(#1399));
#1387=PRODUCT_RELATED_PRODUCT_CATEGORY('LOOP3_COLL','LOOP3_COLL',(#1400));
#1388=PRODUCT_RELATED_PRODUCT_CATEGORY('LOOP3_COLL_L','LOOP3_COLL_L',(#1401));
#1389=PRODUCT_RELATED_PRODUCT_CATEGORY('LaserBeamEntry2',
'LaserBeamEntry2',(#1402));
#1390=APPLICATION_PROTOCOL_DEFINITION('international standard',
'automotive_design',2009,#1391);
#1391=APPLICATION_CONTEXT(
'Core Data for Automotive Mechanical Design Process');
#1392=PRODUCT_CONTEXT('part definition',#1391,'mechanical');
#1393=PRODUCT('MultiPass0V_outsideIn-DFMOD',
'MultiPass0V_outsideIn-DFMOD',$,(#1392));
#1394=PRODUCT('BB1-E02-Solidworks','BB1-E02-Solidworks',$,(#1392));
#1395=PRODUCT('LA1608-AB-2LOOP_grid','LA1608-AB-2LOOP_grid',$,(#1392));
#1396=PRODUCT('LOOP1_COLL_L','LOOP1_COLL_L',$,(#1392));
#1397=PRODUCT('LOOP1_COLL','LOOP1_COLL',$,(#1392));
#1398=PRODUCT('LOOP2_COLL_L','LOOP2_COLL_L',$,(#1392));
#1399=PRODUCT('LOOP2_COLL','LOOP2_COLL',$,(#1392));
#1400=PRODUCT('LOOP3_COLL','LOOP3_COLL',$,(#1392));
#1401=PRODUCT('LOOP3_COLL_L','LOOP3_COLL_L',$,(#1392));
#1402=PRODUCT('LaserBeamEntry2','LaserBeamEntry2',$,(#1392));
ENDSEC;
END-ISO-10303-21;
