<?xml version="1.0" encoding="utf-8" standalone="no"?>
<!DOCTYPE svg PUBLIC "-//W3C//DTD SVG 1.1//EN"
  "http://www.w3.org/Graphics/SVG/1.1/DTD/svg11.dtd">
<svg xmlns:xlink="http://www.w3.org/1999/xlink" width="432pt" height="288pt" viewBox="0 0 432 288" xmlns="http://www.w3.org/2000/svg" version="1.1">
 <metadata>
  <rdf:RDF xmlns:dc="http://purl.org/dc/elements/1.1/" xmlns:cc="http://creativecommons.org/ns#" xmlns:rdf="http://www.w3.org/1999/02/22-rdf-syntax-ns#">
   <cc:Work>
    <dc:type rdf:resource="http://purl.org/dc/dcmitype/StillImage"/>
    <dc:date>2025-08-26T10:27:55.417856</dc:date>
    <dc:format>image/svg+xml</dc:format>
    <dc:creator>
     <cc:Agent>
      <dc:title>Matplotlib v3.7.5, https://matplotlib.org/</dc:title>
     </cc:Agent>
    </dc:creator>
   </cc:Work>
  </rdf:RDF>
 </metadata>
 <defs>
  <style type="text/css">*{stroke-linejoin: round; stroke-linecap: butt}</style>
 </defs>
 <g id="figure_1">
  <g id="patch_1">
   <path d="M 0 288 
L 432 288 
L 432 0 
L 0 0 
z
" style="fill: #ffffff"/>
  </g>
  <g id="axes_1">
   <g id="line2d_1">
    <path d="M 54 250.06086 
L 54.20096 255.283255 
L 54.401921 250.067131 
L 54.602881 255.278029 
L 54.803842 250.072356 
L 55.004802 255.271759 
L 55.205762 250.078627 
L 55.406723 255.266533 
L 55.607683 250.083852 
L 55.808643 255.260263 
L 56.009604 250.090123 
L 56.210564 255.253992 
L 56.411525 250.095349 
L 56.612485 255.248766 
L 56.813445 250.101619 
L 57.014406 255.242496 
L 57.215366 250.106845 
L 57.416327 255.23727 
L 57.617287 250.113115 
L 57.818247 255.231 
L 58.019208 250.119386 
L 58.220168 255.225774 
L 58.421128 250.124612 
L 58.622089 255.219503 
L 58.823049 250.130882 
L 59.02401 255.214278 
L 59.22497 250.136108 
L 59.42593 255.208007 
L 59.626891 250.142378 
L 59.827851 255.202782 
L 60.028812 250.147604 
L 60.229772 255.196511 
L 60.430732 250.153875 
L 60.631693 255.19024 
L 60.832653 250.1591 
L 61.033613 255.185015 
L 61.234574 250.165371 
L 61.435534 255.178744 
L 61.636495 250.170596 
L 61.837455 255.173519 
L 62.038415 250.176867 
L 62.239376 255.167248 
L 62.440336 250.183137 
L 62.641297 255.162023 
L 62.842257 250.188363 
L 63.043217 255.155752 
L 63.244178 250.194634 
L 63.445138 255.150526 
L 63.646098 250.199859 
L 63.847059 255.518404 
L 64.048019 250.215536 
L 64.24898 255.137985 
L 64.44994 250.211355 
L 64.6509 255.13276 
L 64.851861 250.217626 
L 65.052821 255.126489 
L 65.253782 250.222852 
L 65.454742 255.121263 
L 65.655702 250.229122 
L 65.856663 255.114993 
L 66.057623 250.235393 
L 66.258583 255.109767 
L 66.459544 250.240618 
L 66.660504 255.103497 
L 66.861465 250.246889 
L 67.062425 255.098271 
L 67.263385 250.252114 
L 67.464346 255.092 
L 67.665306 250.258385 
L 67.866267 255.08573 
L 68.067227 250.263611 
L 68.268187 255.080504 
L 68.469148 250.269881 
L 68.670108 255.074234 
L 68.871068 250.275107 
L 69.072029 255.069008 
L 69.272989 250.281377 
L 69.47395 255.062737 
L 69.67491 250.286603 
L 69.87587 255.057512 
L 70.076831 250.292874 
L 70.277791 255.051241 
L 70.478752 250.299144 
L 70.679712 255.046016 
L 70.880672 250.30437 
L 71.081633 255.039745 
L 71.282593 250.31064 
L 71.483553 255.03452 
L 71.684514 250.315866 
L 71.885474 255.028249 
L 72.086435 250.322137 
L 72.287395 255.021978 
L 72.488355 250.327362 
L 72.689316 255.016753 
L 72.890276 250.333633 
L 73.091236 255.010482 
L 73.292197 250.338858 
L 73.493157 255.005257 
L 73.694118 250.345129 
L 73.895078 254.998986 
L 74.096038 250.3514 
L 74.296999 255.353277 
L 74.497959 250.380663 
L 74.69892 254.98749 
L 74.89988 250.362896 
L 75.10084 254.982264 
L 75.301801 250.368121 
L 75.502761 255.403442 
L 75.703721 250.399474 
L 75.904682 254.969723 
L 76.105642 250.379617 
L 76.306603 254.964497 
L 76.507563 250.385888 
L 76.708523 254.958227 
L 76.909484 250.391114 
L 77.110444 255.766094 
L 77.311405 250.45591 
L 77.512365 254.946731 
L 77.713325 250.403655 
L 77.914286 254.941505 
L 78.115246 250.40888 
L 78.316206 254.935235 
L 78.517167 250.415151 
L 78.718127 254.930009 
L 78.919088 250.420377 
L 79.120048 254.923738 
L 79.321008 250.426647 
L 79.521969 254.918513 
L 79.722929 250.431873 
L 79.92389 254.912242 
L 80.12485 250.438143 
L 80.32581 254.905972 
L 80.526771 250.443369 
L 80.727731 254.900746 
L 80.928691 250.44964 
L 81.129652 254.894475 
L 81.330612 250.454865 
L 81.531573 254.88925 
L 81.732533 250.461136 
L 81.933493 254.882979 
L 82.134454 250.467406 
L 82.335414 254.877754 
L 82.536375 250.472632 
L 82.737335 254.871483 
L 82.938295 250.478902 
L 83.139256 254.866258 
L 83.340216 250.484128 
L 83.541176 254.859987 
L 83.742137 250.490399 
L 83.943097 254.853716 
L 84.144058 250.495624 
L 84.345018 254.848491 
L 84.545978 250.501895 
L 84.746939 254.84222 
L 84.947899 250.50712 
L 85.14886 254.836995 
L 85.34982 250.513391 
L 85.55078 254.830724 
L 85.751741 250.519662 
L 85.952701 254.825498 
L 86.153661 250.524887 
L 86.354622 254.819228 
L 86.555582 250.531158 
L 86.756543 254.814002 
L 86.957503 250.536383 
L 87.158463 254.807732 
L 87.359424 250.542654 
L 87.560384 254.801461 
L 87.761345 250.547879 
L 87.962305 254.796235 
L 88.163265 250.55415 
L 88.364226 254.789965 
L 88.565186 250.559376 
L 88.766146 254.784739 
L 88.967107 250.565646 
L 89.168067 254.778469 
L 89.369028 250.570872 
L 89.569988 254.773243 
L 89.770948 250.577142 
L 89.971909 254.766972 
L 90.172869 250.583413 
L 90.37383 254.761747 
L 90.57479 250.588639 
L 90.77575 254.755476 
L 90.976711 250.594909 
L 91.177671 254.750251 
L 91.378631 250.600135 
L 91.579592 254.74398 
L 91.780552 250.606405 
L 91.981513 254.737709 
L 92.182473 250.611631 
L 92.383433 254.732484 
L 92.584394 250.617902 
L 92.785354 254.726213 
L 92.986315 250.623127 
L 93.187275 254.720988 
L 93.388235 250.629398 
L 93.589196 254.714717 
L 93.790156 250.635668 
L 93.991116 254.709492 
L 94.192077 250.640894 
L 94.393037 254.703221 
L 94.593998 250.647165 
L 94.794958 254.697995 
L 94.995918 250.65239 
L 95.196879 254.691725 
L 95.397839 250.658661 
L 95.5988 254.685454 
L 95.79976 250.663886 
L 96.00072 254.680229 
L 96.201681 250.670157 
L 96.402641 254.673958 
L 96.603601 250.675382 
L 96.804562 254.668732 
L 97.005522 250.681653 
L 97.206483 254.662462 
L 97.407443 250.687924 
L 97.608403 254.657236 
L 97.809364 250.693149 
L 98.010324 254.650966 
L 98.211285 250.69942 
L 98.412245 254.64574 
L 98.613205 250.704645 
L 98.814166 254.63947 
L 99.015126 250.710916 
L 99.216086 254.634244 
L 99.417047 250.716142 
L 99.618007 254.627973 
L 99.818968 250.722412 
L 100.019928 254.621703 
L 100.220888 250.727638 
L 100.421849 254.616477 
L 100.622809 250.733908 
L 100.82377 254.610207 
L 101.02473 250.739134 
L 101.22569 254.604981 
L 101.426651 250.745405 
L 101.627611 254.59871 
L 101.828571 250.751675 
L 102.029532 254.593485 
L 102.230492 250.756901 
L 102.431453 254.587214 
L 102.632413 250.763171 
L 102.833373 254.581989 
L 103.034334 250.768397 
L 103.235294 254.575718 
L 103.436255 250.774667 
L 103.637215 254.569447 
L 103.838175 250.779893 
L 104.039136 254.564222 
L 104.240096 250.786164 
L 104.441056 254.557951 
L 104.642017 250.791389 
L 104.842977 254.552726 
L 105.043938 250.79766 
L 105.244898 254.546455 
L 105.445858 250.80393 
L 105.646819 254.54123 
L 105.847779 250.809156 
L 106.048739 254.534959 
L 106.2497 250.815427 
L 106.45066 254.529733 
L 106.651621 250.820652 
L 106.852581 254.523463 
L 107.053541 250.826923 
L 107.254502 254.518237 
L 107.455462 250.832148 
L 107.656423 254.511967 
L 107.857383 250.838419 
L 108.058343 254.505696 
L 108.259304 250.843644 
L 108.460264 254.50047 
L 108.661224 250.849915 
L 108.862185 254.4942 
L 109.063145 250.855141 
L 109.264106 254.488974 
L 109.465066 250.861411 
L 109.666026 254.482704 
L 109.866987 250.867682 
L 110.067947 254.477478 
L 110.268908 250.872907 
L 110.469868 254.471207 
L 110.670828 250.879178 
L 110.871789 254.465982 
L 111.072749 250.884404 
L 111.273709 254.459711 
L 111.47467 250.890674 
L 111.67563 254.453441 
L 111.876591 250.8959 
L 112.077551 254.448215 
L 112.278511 250.90217 
L 112.479472 254.441944 
L 112.680432 250.907396 
L 112.881393 254.436719 
L 113.082353 250.913667 
L 113.283313 254.430448 
L 113.484274 250.919937 
L 113.685234 254.425223 
L 113.886194 250.925163 
L 114.087155 254.418952 
L 114.288115 250.931433 
L 114.489076 254.413727 
L 114.690036 250.936659 
L 114.890996 254.407456 
L 115.091957 250.94293 
L 115.292917 254.401185 
L 115.493878 250.948155 
L 115.694838 254.39596 
L 115.895798 250.954426 
L 116.096759 254.389689 
L 116.297719 250.959651 
L 116.498679 254.384464 
L 116.69964 250.965922 
L 116.9006 254.378193 
L 117.101561 250.971147 
L 117.302521 254.372967 
L 117.503481 250.977418 
L 117.704442 254.366697 
L 117.905402 250.983689 
L 118.106363 254.361471 
L 118.307323 250.988914 
L 118.508283 254.355201 
L 118.709244 250.995185 
L 118.910204 254.349975 
L 119.111164 251.00041 
L 119.312125 254.343705 
L 119.513085 251.006681 
L 119.714046 254.337434 
L 119.915006 251.011907 
L 120.115966 254.332208 
L 120.316927 251.018177 
L 120.517887 254.325938 
L 120.718848 251.023403 
L 120.919808 254.320712 
L 121.120768 251.029673 
L 121.321729 254.314442 
L 121.522689 251.035944 
L 121.723649 254.309216 
L 121.92461 251.04117 
L 122.12557 254.302945 
L 122.326531 251.04744 
L 122.527491 254.29772 
L 122.728451 251.052666 
L 122.929412 254.291449 
L 123.130372 251.058936 
L 123.331333 254.285179 
L 123.532293 251.064162 
L 123.733253 254.279953 
L 123.934214 251.070432 
L 124.135174 254.273682 
L 124.336134 251.075658 
L 124.537095 254.268457 
L 124.738055 251.081929 
L 124.939016 254.262186 
L 125.139976 251.088199 
L 125.340936 254.256961 
L 125.541897 251.093425 
L 125.742857 254.25069 
L 125.943818 251.099695 
L 126.144778 254.245465 
L 126.345738 251.104921 
L 126.546699 254.239194 
L 126.747659 251.111192 
L 126.948619 254.233968 
L 127.14958 251.116417 
L 127.35054 254.227698 
L 127.551501 251.122688 
L 127.752461 254.221427 
L 127.953421 251.127913 
L 128.154382 254.216202 
L 128.355342 251.134184 
L 128.556303 254.209931 
L 128.757263 251.139409 
L 128.958223 254.204705 
L 129.159184 251.14568 
L 129.360144 254.198435 
L 129.561104 251.151951 
L 129.762065 254.193209 
L 129.963025 251.157176 
L 130.163986 254.186939 
L 130.364946 251.163447 
L 130.565906 254.181713 
L 130.766867 251.168672 
L 130.967827 254.175442 
L 131.168788 251.174943 
L 131.369748 254.169172 
L 131.570708 251.180169 
L 131.771669 254.163946 
L 131.972629 251.186439 
L 132.173589 254.157676 
L 132.37455 251.191665 
L 132.57551 254.15245 
L 132.776471 251.197935 
L 132.977431 254.146179 
L 133.178391 251.204206 
L 133.379352 254.140954 
L 133.580312 251.209432 
L 133.781273 254.134683 
L 133.982233 251.215702 
L 134.183193 254.129458 
L 134.384154 251.220928 
L 134.585114 254.123187 
L 134.786074 251.227198 
L 134.987035 254.116917 
L 135.187995 251.232424 
L 135.388956 254.111691 
L 135.589916 251.238695 
L 135.790876 254.10542 
L 135.991837 251.24392 
L 136.192797 254.100195 
L 136.393758 251.250191 
L 136.594718 254.093924 
L 136.795678 251.255416 
L 136.996639 254.088699 
L 137.197599 251.261687 
L 137.398559 254.082428 
L 137.59952 251.267958 
L 137.80048 254.077202 
L 138.001441 251.273183 
L 138.202401 254.070932 
L 138.403361 251.279454 
L 138.604322 254.065706 
L 138.805282 251.284679 
L 139.006242 254.059436 
L 139.207203 251.29095 
L 139.408163 254.053165 
L 139.609124 251.296175 
L 139.810084 254.04794 
L 140.011044 251.302446 
L 140.212005 254.041669 
L 140.412965 251.307672 
L 140.613926 254.036443 
L 140.814886 251.313942 
L 141.015846 254.030173 
L 141.216807 251.320213 
L 141.417767 253.621536 
L 141.618727 251.205251 
L 141.819688 254.018677 
L 142.020648 251.331709 
L 142.221609 254.013451 
L 142.422569 251.336935 
L 142.623529 254.00718 
L 142.82449 251.343205 
L 143.02545 254.00091 
L 143.226411 251.348431 
L 143.427371 253.995684 
L 143.628331 251.354701 
L 143.829292 253.989414 
L 144.030252 251.359927 
L 144.231212 253.984188 
L 144.432173 251.366197 
L 144.633133 253.971647 
L 144.834094 251.3871 
L 145.035054 253.9497 
L 145.236014 251.409047 
L 145.436975 253.926707 
L 145.637935 251.432039 
L 145.838896 253.90476 
L 146.039856 251.453986 
L 146.240816 253.881768 
L 146.441777 251.475934 
L 146.642737 253.85982 
L 146.843697 251.498926 
L 147.044658 253.836828 
L 147.245618 251.520873 
L 147.446579 253.814881 
L 147.647539 251.543866 
L 147.848499 253.792934 
L 148.04946 251.565813 
L 148.25042 253.769941 
L 148.451381 251.588805 
L 148.652341 253.747994 
L 148.853301 251.610752 
L 149.054262 253.725002 
L 149.255222 251.6327 
L 149.456182 253.703055 
L 149.657143 251.655692 
L 149.858103 253.499259 
L 150.059064 251.618068 
L 150.260024 253.658115 
L 150.460984 251.700631 
L 150.661945 253.636168 
L 150.862905 251.722579 
L 151.063866 253.613175 
L 151.264826 251.745571 
L 151.465786 253.078081 
L 151.666747 251.541775 
L 151.867707 252.86697 
L 152.068667 251.44458 
L 152.269628 252.52522 
L 152.470588 251.322303 
L 152.671549 252.831436 
L 152.872509 251.480114 
L 153.073469 252.813669 
L 153.27443 251.497881 
L 153.47539 253.429237 
L 153.676351 251.877254 
L 153.877311 252.777091 
L 154.078271 251.533414 
L 154.279232 252.887872 
L 154.480192 251.647331 
L 154.681152 252.956849 
L 154.882113 251.715263 
L 155.083073 253.389523 
L 155.284034 251.969224 
L 155.484994 253.36653 
L 155.685954 251.991171 
L 155.886915 253.344583 
L 156.087875 252.014163 
L 156.288836 253.321591 
L 156.489796 252.03611 
L 156.690756 253.299644 
L 156.891717 252.059103 
L 157.092677 253.208719 
L 157.293637 252.012073 
L 157.494598 253.103164 
L 157.695558 251.979675 
L 157.896519 252.598377 
L 158.097479 251.713173 
L 158.298439 253.209765 
L 158.4994 252.147937 
L 158.70036 253.187817 
L 158.901321 252.170929 
L 159.102281 252.693482 
L 159.303241 251.840676 
L 159.504202 252.526265 
L 159.705162 251.78424 
L 159.906122 252.522085 
L 160.107083 251.840676 
L 160.308043 252.583746 
L 160.509004 251.916968 
L 160.709964 252.643317 
L 160.910924 251.993261 
L 161.111885 251.856352 
L 161.312845 251.406957 
L 161.513806 251.842766 
L 161.714766 251.420543 
L 161.915726 252.22841 
L 162.116687 251.773789 
L 162.317647 252.287981 
L 162.518607 251.851127 
L 162.719568 251.803052 
L 162.920528 251.462347 
L 163.121489 251.749751 
L 163.322449 251.411137 
L 163.523409 251.889796 
L 163.72437 251.613888 
L 163.92533 252.329785 
L 164.126291 251.981765 
L 164.327251 252.310973 
L 164.930132 251.360972 
L 165.131092 250.214491 
L 165.332053 250.048319 
L 165.533013 249.439022 
L 165.733974 248.469164 
L 166.537815 239.449899 
L 166.939736 224.296907 
L 167.743577 194.292958 
L 168.145498 187.301199 
L 168.346459 188.616987 
L 168.94934 203.683236 
L 169.954142 242.449353 
L 170.356062 250.735999 
L 170.958944 252.075824 
L 171.159904 252.006847 
L 171.360864 252.304703 
L 171.561825 251.901292 
L 171.762785 252.255583 
L 171.963745 251.946231 
L 172.164706 252.340236 
L 172.365666 251.953547 
L 172.566627 252.358003 
L 172.767587 251.466528 
L 172.968547 251.796781 
L 173.169508 251.137319 
L 173.370468 251.336935 
L 173.571429 250.737044 
L 173.772389 250.963832 
L 173.973349 250.971147 
L 174.17431 251.244965 
L 174.37527 251.081929 
L 174.57623 251.374558 
L 174.777191 250.953381 
L 174.978151 251.262732 
L 175.179112 250.50294 
L 175.380072 250.739134 
L 175.581032 250.170596 
L 175.781993 250.293919 
L 176.183914 250.872907 
L 176.384874 250.655525 
L 176.585834 250.960696 
L 176.987755 247.575598 
L 177.188715 243.689894 
L 177.590636 228.289212 
L 177.992557 202.965248 
L 178.595438 156.1654 
L 178.796399 143.268792 
L 178.997359 141.168129 
L 179.198319 142.716976 
L 179.39928 146.164781 
L 179.8012 169.628456 
L 180.404082 207.405903 
L 180.806002 224.741077 
L 181.408884 242.852764 
L 181.810804 249.425436 
L 182.011765 250.436053 
L 182.212725 250.730773 
L 182.614646 248.266413 
L 183.016567 244.954472 
L 183.217527 244.236484 
L 183.418487 242.914425 
L 183.619448 242.830817 
L 184.021369 244.672293 
L 184.423289 247.267292 
L 184.62425 247.904806 
L 184.82521 249.152663 
L 185.02617 249.279121 
L 185.227131 249.758824 
L 185.428091 250.574007 
L 185.629052 249.788087 
L 185.830012 249.917681 
L 186.030972 249.539352 
L 187.035774 250.468451 
L 187.437695 250.25943 
L 187.638655 249.363774 
L 187.839616 249.226865 
L 188.040576 249.277031 
L 188.241537 249.510089 
L 188.442497 248.556953 
L 188.643457 246.714431 
L 188.844418 241.896492 
L 189.246339 222.866156 
L 190.452101 127.890057 
L 190.653061 124.719206 
L 190.854022 125.451825 
L 191.255942 148.833982 
L 191.858824 201.116455 
L 192.260744 229.935254 
L 192.662665 245.587806 
L 192.863625 248.866304 
L 193.064586 249.536217 
L 193.265546 249.120265 
L 193.667467 249.737922 
L 194.069388 250.555195 
L 194.270348 251.00041 
L 194.471309 250.879178 
L 194.672269 251.644196 
L 194.873229 251.027583 
L 195.07419 251.998487 
L 195.27515 250.760036 
L 195.47611 251.452941 
L 195.677071 250.40888 
L 195.878031 250.757946 
L 196.078992 250.399474 
L 196.279952 250.768397 
L 196.480912 250.40679 
L 196.681873 250.761081 
L 196.882833 250.74854 
L 197.083794 251.464437 
L 197.284754 250.74645 
L 197.485714 251.467573 
L 197.686675 250.743314 
L 197.887635 251.469663 
L 198.088595 250.177912 
L 198.289556 250.330497 
L 198.691477 249.737922 
L 198.892437 250.231212 
L 199.093397 250.215536 
L 199.495318 249.094137 
L 199.696279 247.129338 
L 200.098199 236.879983 
L 200.50012 215.30795 
L 201.103001 163.280482 
L 201.504922 134.071859 
L 201.705882 123.739941 
L 201.906843 122.077178 
L 202.107803 127.527405 
L 202.509724 152.85973 
L 203.112605 205.374217 
L 203.514526 227.847132 
L 203.916447 240.315247 
L 204.318367 244.547926 
L 204.519328 244.404746 
L 204.720288 245.129005 
L 204.921248 244.963878 
L 205.122209 245.783241 
L 205.323169 245.461349 
L 205.52413 244.923119 
L 205.72509 245.880436 
L 205.92605 246.180381 
L 206.127011 246.722791 
L 206.327971 246.447929 
L 206.528932 246.685168 
L 206.729892 247.394795 
L 206.930852 247.194134 
L 207.533733 249.550848 
L 207.734694 249.852884 
L 208.337575 251.512512 
L 208.538535 250.379617 
L 208.739496 250.787209 
L 208.940456 250.379617 
L 209.141417 250.787209 
L 209.342377 250.379617 
L 209.543337 250.787209 
L 209.744298 250.274062 
L 209.945258 250.561466 
L 210.146218 250.378572 
L 210.347179 250.788254 
L 210.548139 250.06086 
L 210.7491 250.06086 
L 210.95006 249.498593 
L 211.351981 245.336981 
L 211.552941 241.217173 
L 211.954862 222.080237 
L 212.155822 208.827247 
L 212.959664 111.628208 
L 213.361585 67.114007 
L 213.562545 52.545229 
L 214.165426 90.786704 
L 215.371188 230.621888 
L 215.773109 245.044351 
L 215.97407 248.597712 
L 216.17503 250.06086 
L 216.37599 250.06086 
L 216.777911 250.792434 
L 216.978872 250.687924 
L 217.179832 251.524009 
L 217.380792 250.374392 
L 217.581753 250.792434 
L 217.782713 250.06086 
L 217.983673 250.06086 
L 218.385594 250.792434 
L 218.586555 250.374392 
L 218.787515 250.792434 
L 218.988475 250.06086 
L 220.395198 250.06086 
L 220.797119 250.792434 
L 220.998079 250.06086 
L 221.19904 250.06086 
L 221.60096 250.792434 
L 222.002881 249.015754 
L 222.203842 248.702222 
L 222.605762 247.343584 
L 222.806723 245.566904 
L 223.208643 244.626309 
L 223.610564 235.324865 
L 223.811525 226.127932 
L 224.213445 189.444711 
L 225.218247 50.968164 
L 225.620168 34.56 
L 226.022089 59.94667 
L 227.227851 223.017697 
L 227.629772 243.749465 
L 228.031693 249.877967 
L 228.433613 251.539685 
L 228.634574 250.831103 
L 228.835534 251.904427 
L 229.036495 250.973238 
L 229.237455 252.285891 
L 229.438415 251.088199 
L 229.639376 252.554483 
L 229.840336 250.965922 
L 230.041297 252.292161 
L 230.242257 250.962787 
L 230.443217 252.296342 
L 230.644178 250.717187 
L 230.845138 251.670323 
L 231.046098 250.396339 
L 231.247059 250.876043 
L 231.448019 250.375437 
L 231.64898 250.826923 
L 231.84994 250.644029 
L 232.0509 251.464437 
L 232.251861 250.333633 
L 232.653782 251.151951 
L 232.854742 252.804263 
L 233.055702 250.646119 
L 233.256663 251.566858 
L 233.457623 250.432918 
L 233.658583 251.048485 
L 233.859544 250.160145 
L 234.060504 250.345129 
L 234.261465 250.06086 
L 234.462425 250.06086 
L 234.663385 250.485173 
L 234.864346 251.204206 
L 235.065306 250.191498 
L 235.266267 250.26152 
L 235.668187 247.604861 
L 235.869148 245.32862 
L 236.271068 232.236577 
L 236.672989 209.20035 
L 237.476831 147.517148 
L 237.677791 142.590518 
L 237.878752 145.288982 
L 238.079712 150.349386 
L 238.883553 220.648442 
L 239.285474 242.939508 
L 239.486435 248.960363 
L 239.687395 250.94502 
L 239.888355 250.622082 
L 240.089316 251.58985 
L 240.290276 250.399474 
L 240.491236 250.997275 
L 240.692197 250.621037 
L 240.893157 251.590895 
L 241.094118 250.69733 
L 241.295078 251.815593 
L 241.496038 250.533248 
L 241.696999 251.34216 
L 241.897959 250.532203 
L 242.09892 251.379784 
L 242.29988 250.444414 
L 242.50084 251.130004 
L 242.701801 250.45382 
L 242.902761 251.156131 
L 243.103721 250.185228 
L 243.304682 250.265701 
L 243.505642 248.948867 
L 243.907563 245.100787 
L 244.108523 244.095395 
L 244.309484 243.673172 
L 244.510444 245.089291 
L 244.912365 245.848038 
L 245.314286 248.072023 
L 245.716206 248.665644 
L 245.917167 248.319713 
L 246.520048 243.597924 
L 246.921969 239.6098 
L 247.122929 239.728942 
L 247.32389 240.74165 
L 247.52485 243.070146 
L 247.72581 243.778728 
L 247.926771 243.168386 
L 248.127731 241.646712 
L 248.529652 226.54493 
L 248.931573 200.148687 
L 249.333493 177.596344 
L 249.534454 173.786933 
L 249.735414 175.419389 
L 250.137335 192.247686 
L 250.941176 241.23494 
L 251.343097 250.06086 
L 251.544058 251.142545 
L 251.745018 253.160645 
L 251.945978 251.091335 
L 252.146939 253.005969 
L 252.347899 251.140455 
L 252.54886 253.162735 
L 252.74982 251.139409 
L 252.95078 253.16378 
L 253.151741 251.138364 
L 253.352701 253.164825 
L 253.553661 251.051621 
L 253.754622 252.907729 
L 253.955582 250.15492 
L 254.156543 250.075492 
L 254.357503 248.952003 
L 254.759424 248.059482 
L 254.960384 248.754478 
L 255.161345 248.705358 
L 255.362305 249.499638 
L 255.764226 249.926041 
L 255.965186 249.550848 
L 256.166146 249.427526 
L 256.568067 248.258052 
L 256.769028 247.408381 
L 256.969988 247.122022 
L 257.170948 246.043473 
L 257.371909 246.368501 
L 257.572869 246.051833 
L 257.97479 246.844024 
L 258.376711 250.591774 
L 258.577671 251.620158 
L 258.778631 251.122688 
L 258.979592 253.180502 
L 259.180552 251.121643 
L 259.381513 253.181547 
L 259.582473 250.855141 
L 259.783433 252.401898 
L 260.185354 244.482084 
L 260.587275 224.976226 
L 261.190156 183.27336 
L 261.391116 169.091272 
L 261.592077 165.782466 
L 261.793037 165.455348 
L 262.395918 191.564186 
L 263.19976 240.789725 
L 263.40072 247.69683 
L 263.601681 250.644029 
L 263.802641 251.88248 
L 264.003601 250.658661 
L 264.204562 251.936825 
L 264.405522 250.314821 
L 264.606483 250.852005 
L 264.807443 250.566691 
L 265.008403 251.646286 
L 265.209364 250.816472 
L 265.410324 252.442657 
L 265.611285 250.964877 
L 265.812245 252.954759 
L 266.013205 250.977418 
L 266.214166 253.012239 
L 266.415126 250.870817 
L 266.616086 252.633911 
L 266.817047 251.249146 
L 267.018007 253.925662 
L 267.218968 251.04535 
L 267.419928 253.258884 
L 267.620888 251.271093 
L 267.821849 254.042714 
L 268.022809 251.036989 
L 268.22377 253.299644 
L 268.42473 251.274228 
L 268.62569 254.076157 
L 268.826651 251.059981 
L 269.027611 253.416695 
L 269.228571 251.262732 
L 269.429532 254.087654 
L 269.630492 251.256461 
L 269.831453 254.093924 
L 270.032413 251.251236 
L 270.233373 254.09915 
L 270.434334 251.244965 
L 270.635294 254.10542 
L 270.836255 251.23974 
L 271.037215 254.110646 
L 271.238175 251.124778 
L 271.439136 253.768896 
L 271.640096 251.228243 
L 271.841056 254.122142 
L 272.042017 251.221973 
L 272.242977 254.128413 
L 272.443938 251.215702 
L 272.644898 254.133638 
L 272.845858 251.210477 
L 273.046819 254.139909 
L 273.247779 251.204206 
L 273.448739 254.145134 
L 273.6497 251.198981 
L 273.85066 254.151405 
L 274.051621 251.19271 
L 274.252581 254.156631 
L 274.453541 251.187484 
L 274.654502 254.162901 
L 274.855462 251.181214 
L 275.056423 254.169172 
L 275.257383 251.175988 
L 275.458343 254.174397 
L 275.659304 251.169718 
L 275.860264 254.180668 
L 276.061224 251.164492 
L 276.262185 254.185894 
L 276.463145 251.158221 
L 276.664106 254.192164 
L 276.865066 251.255416 
L 277.066026 254.613342 
L 277.266987 251.146725 
L 277.467947 254.20366 
L 277.668908 251.1415 
L 277.869868 254.208886 
L 278.070828 251.135229 
L 278.271789 254.215156 
L 278.472749 251.128958 
L 278.673709 254.220382 
L 278.87467 251.123733 
L 279.07563 254.226653 
L 279.276591 251.117462 
L 279.477551 254.231878 
L 279.678511 251.112237 
L 279.879472 254.238149 
L 280.080432 251.105966 
L 280.281393 254.243374 
L 280.482353 251.100741 
L 280.683313 254.249645 
L 280.884274 251.09447 
L 281.085234 254.255916 
L 281.286194 251.089244 
L 281.487155 254.261141 
L 281.688115 251.082974 
L 281.889076 254.267412 
L 282.090036 251.077748 
L 282.290996 254.272637 
L 282.491957 251.071478 
L 282.692917 254.278908 
L 282.893878 251.066252 
L 283.094838 254.284133 
L 283.295798 251.059981 
L 283.496759 254.290404 
L 283.697719 251.054756 
L 283.898679 254.29563 
L 284.09964 251.048485 
L 284.3006 254.3019 
L 284.501561 251.09447 
L 284.702521 254.505696 
L 284.903481 251.036989 
L 285.104442 254.313396 
L 285.305402 251.056846 
L 285.506363 254.404321 
L 285.707323 251.025493 
L 285.908283 254.324893 
L 286.109244 251.019222 
L 286.310204 254.358336 
L 286.511164 251.013997 
L 286.712125 254.336389 
L 286.913085 251.032809 
L 287.114046 254.484794 
L 287.315006 251.002501 
L 287.515966 254.347885 
L 287.716927 250.99623 
L 287.917887 254.354156 
L 288.118848 250.991004 
L 288.319808 254.359381 
L 288.520768 251.095515 
L 288.721729 254.853716 
L 288.922689 250.979508 
L 289.123649 254.370877 
L 289.32461 250.973238 
L 289.52557 254.377148 
L 289.726531 250.968012 
L 289.927491 254.382373 
L 290.128451 251.081929 
L 290.329412 254.992715 
L 290.530372 250.955471 
L 290.731333 254.39387 
L 290.932293 251.09238 
L 291.133253 255.121263 
L 291.334214 250.943975 
L 291.535174 254.405366 
L 291.736134 251.114327 
L 291.937095 255.28221 
L 292.138055 251.107011 
L 292.339016 255.28848 
L 292.539976 250.937704 
L 292.740936 254.507786 
L 292.941897 250.920982 
L 293.142857 254.429403 
L 293.343818 250.9492 
L 293.544778 254.636334 
L 293.745738 251.034899 
L 293.946699 255.056467 
L 294.147659 250.904261 
L 294.348619 254.446125 
L 294.54958 250.89799 
L 294.75054 254.452396 
L 294.951501 250.892764 
L 295.152461 254.457621 
L 295.353421 251.051621 
L 295.554382 255.343871 
L 295.755342 250.978463 
L 295.956303 255.024069 
L 296.157263 250.929343 
L 296.358223 254.742935 
L 296.559184 250.868727 
L 296.760144 254.480613 
L 296.961104 250.863502 
L 297.162065 254.486884 
L 297.363025 250.857231 
L 297.563986 254.49211 
L 297.764946 250.852005 
L 297.965906 254.49838 
L 298.166867 251.003546 
L 298.367827 255.392991 
L 298.568788 250.840509 
L 298.769748 254.509876 
L 298.970708 250.854096 
L 299.171669 254.659327 
L 299.372629 250.829013 
L 299.573589 254.521373 
L 299.77455 250.975328 
L 299.97551 255.420164 
L 300.176471 250.817517 
L 300.377431 254.532869 
L 300.578391 250.842599 
L 300.779352 254.667687 
L 300.980312 250.806021 
L 301.181273 254.544365 
L 301.382233 250.94711 
L 301.583193 255.448382 
L 301.784154 250.85305 
L 301.985114 254.89134 
L 302.186074 250.884404 
L 302.387035 255.187105 
L 302.587995 250.781983 
L 302.788956 254.567357 
L 302.989916 250.776758 
L 303.190876 254.573628 
L 303.391837 250.892764 
L 303.592797 255.38672 
L 303.793758 250.765262 
L 303.994718 254.585124 
L 304.195678 250.758991 
L 304.396639 254.615432 
L 304.597599 250.883359 
L 304.798559 255.419119 
L 304.99952 250.885449 
L 305.20048 255.511088 
L 305.401441 250.878133 
L 305.602401 255.517359 
L 305.803361 250.771532 
L 306.004322 254.880889 
L 306.205282 250.730773 
L 306.406242 254.619613 
L 306.607203 250.724502 
L 306.808163 254.625883 
L 307.009124 250.849915 
L 307.210084 255.545576 
L 307.411044 250.713006 
L 307.612005 254.637379 
L 307.812965 250.836329 
L 308.013926 255.559163 
L 308.214886 250.745405 
L 308.415846 254.931054 
L 308.616807 250.730773 
L 308.817767 254.876709 
L 309.018727 250.690014 
L 309.219688 254.660372 
L 309.420648 250.683743 
L 309.621609 254.665597 
L 309.822569 250.687924 
L 310.023529 254.710537 
L 310.22449 250.672247 
L 310.42545 254.677093 
L 310.626411 250.673292 
L 310.827371 254.766972 
L 311.028331 250.676428 
L 311.229292 254.834904 
L 311.430252 250.751675 
L 311.631212 255.413893 
L 311.832173 250.649255 
L 312.033133 254.701131 
L 312.234094 250.644029 
L 312.435054 254.706356 
L 312.636014 250.637759 
L 312.836975 254.712627 
L 313.037935 250.632533 
L 313.238896 254.717852 
L 313.439856 250.685833 
L 313.640816 255.242496 
L 313.841777 250.621037 
L 314.042737 254.729349 
L 314.243697 250.65239 
L 314.444658 255.025114 
L 314.645618 250.608496 
L 314.846579 254.740845 
L 315.047539 250.626262 
L 315.248499 254.913287 
L 315.44946 250.596999 
L 315.65042 254.752341 
L 315.851381 250.690014 
L 316.052341 255.656358 
L 316.253301 250.585503 
L 316.454262 254.763837 
L 316.655222 250.683743 
L 316.856182 255.711748 
L 317.057143 250.574007 
L 317.258103 254.776378 
L 317.459064 250.670157 
L 317.660024 255.725335 
L 317.860984 250.588639 
L 318.061945 255.059602 
L 318.262905 250.557285 
L 318.463866 254.7931 
L 318.664826 250.589684 
L 318.865786 255.198601 
L 319.066747 250.598045 
L 319.267707 255.290571 
L 319.468667 250.589684 
L 319.669628 255.3376 
L 319.870588 250.589684 
L 320.071549 255.406577 
L 320.272509 250.621037 
L 320.473469 255.774455 
L 320.67443 250.547879 
L 320.87539 255.062737 
L 321.076351 250.516526 
L 321.277311 254.833859 
L 321.478271 250.587594 
L 321.679232 255.687711 
L 321.880192 250.586548 
L 322.081152 255.757733 
L 322.282113 250.49876 
L 322.483073 254.870438 
L 322.684034 250.497714 
L 322.884994 254.94046 
L 323.085954 250.572962 
L 323.286915 255.82253 
L 323.487875 250.54997 
L 323.688836 255.618734 
L 323.889796 250.538474 
L 324.090756 255.561253 
L 324.291717 250.470542 
L 324.492677 254.879844 
L 324.693637 250.464271 
L 324.894598 254.886115 
L 325.095558 250.501895 
L 325.296519 255.387765 
L 325.497479 250.493534 
L 325.698439 255.43166 
L 325.8994 250.447549 
L 326.10036 254.902836 
L 326.301321 250.441279 
L 326.502281 254.909107 
L 326.703241 250.435008 
L 326.904202 254.914332 
L 327.105162 250.445459 
L 327.306122 255.097226 
L 327.507083 250.486218 
L 327.708043 255.786996 
L 327.909004 250.418286 
L 328.109964 254.932099 
L 328.310924 250.412016 
L 328.511885 254.937325 
L 328.712845 250.40679 
L 328.913806 254.943595 
L 329.114766 250.393204 
L 329.315726 254.801461 
L 329.516687 250.395294 
L 329.717647 254.955092 
L 329.918607 250.454865 
L 330.119568 255.940627 
L 330.320528 250.383798 
L 330.521489 254.966588 
L 330.722449 250.377527 
L 330.923409 254.972858 
L 331.12437 250.433963 
L 331.32533 255.961529 
L 331.526291 250.366031 
L 331.727251 254.984355 
L 331.928211 250.360806 
L 332.129172 254.98958 
L 332.330132 250.354535 
L 332.531092 254.995851 
L 332.732053 250.364986 
L 332.933013 255.248766 
L 333.133974 250.343039 
L 333.334934 255.007347 
L 333.535894 250.383798 
L 333.736855 255.887326 
L 333.937815 250.331543 
L 334.138776 255.018843 
L 334.339736 250.325272 
L 334.540696 255.04079 
L 334.741657 250.320046 
L 334.942617 255.030339 
L 335.143577 250.313776 
L 335.344538 255.03661 
L 335.545498 250.30855 
L 335.746459 255.041835 
L 335.947419 250.30228 
L 336.148379 255.048106 
L 336.34934 250.297054 
L 336.5503 255.053332 
L 336.751261 250.290783 
L 336.952221 255.059602 
L 337.153181 250.285558 
L 337.354142 255.064828 
L 337.555102 250.30228 
L 337.756062 255.619779 
L 337.957023 250.274062 
L 338.157983 255.076324 
L 338.358944 250.267791 
L 338.559904 255.082594 
L 338.760864 250.30228 
L 338.961825 256.093212 
L 339.162785 250.264656 
L 339.363745 255.281165 
L 339.564706 250.256295 
L 339.765666 255.219503 
L 339.966627 250.281377 
L 340.167587 256.114114 
L 340.368547 250.238528 
L 340.569508 255.110812 
L 340.770468 250.267791 
L 340.971429 256.128746 
L 341.172389 250.227032 
L 341.373349 255.123354 
L 341.57431 250.221806 
L 341.77527 255.128579 
L 341.97623 250.215536 
L 342.177191 255.13485 
L 342.378151 250.21031 
L 342.579112 255.140075 
L 342.780072 250.20404 
L 342.981032 255.146346 
L 343.181993 250.198814 
L 343.382953 255.151571 
L 343.583914 250.192543 
L 343.784874 255.157842 
L 343.985834 250.187318 
L 344.186795 255.163068 
L 344.387755 250.181047 
L 344.588715 255.169338 
L 344.789676 250.174777 
L 344.990636 255.174564 
L 345.191597 250.169551 
L 345.392557 255.180834 
L 345.593517 250.16328 
L 345.794478 255.18606 
L 345.995438 250.158055 
L 346.196399 255.192331 
L 346.397359 250.169551 
L 346.598319 256.22594 
L 346.79928 250.146559 
L 347.00024 255.203827 
L 347.2012 250.140288 
L 347.402161 255.210097 
L 347.603121 250.146559 
L 347.804082 256.028415 
L 348.005042 250.131927 
L 348.206002 255.507953 
L 348.406963 250.131927 
L 348.607923 255.904048 
L 348.808884 250.117296 
L 349.009844 255.23309 
L 349.210804 250.116251 
L 349.411765 255.73265 
L 349.612725 250.1058 
L 349.813685 255.244586 
L 350.014646 250.104755 
L 350.215606 255.883146 
L 350.416567 250.098484 
L 350.617527 255.959438 
L 350.818487 250.088033 
L 351.019448 255.261308 
L 351.220408 250.082807 
L 351.421369 255.267578 
L 351.622329 250.076537 
L 351.823289 255.272804 
L 352.02425 250.071311 
L 352.22521 255.279074 
L 352.42617 250.066086 
L 352.627131 256.32 
L 352.828091 250.061905 
L 353.029052 255.28221 
L 353.230012 250.068176 
L 353.430972 255.275939 
L 353.631933 250.073401 
L 353.832893 255.488096 
L 354.033854 250.080717 
L 354.234814 255.264443 
L 354.435774 250.084898 
L 354.636735 255.259217 
L 354.837695 250.091168 
L 355.038655 255.867469 
L 355.239616 250.100574 
L 355.440576 255.792221 
L 355.641537 250.106845 
L 355.842497 255.241451 
L 356.043457 250.10789 
L 356.244418 255.236225 
L 356.445378 250.11416 
L 356.646339 255.229954 
L 356.847299 250.120431 
L 357.048259 255.224729 
L 357.24922 250.125657 
L 357.45018 255.218458 
L 357.65114 250.131927 
L 357.852101 255.213233 
L 358.053061 250.137153 
L 358.254022 255.206962 
L 358.454982 250.143423 
L 358.655942 255.209052 
L 358.856903 250.149694 
L 359.057863 255.195466 
L 359.258824 250.15492 
L 359.459784 255.189195 
L 359.660744 250.160145 
L 359.861705 255.18397 
L 360.062665 250.166416 
L 360.263625 255.177699 
L 360.464586 250.171641 
L 360.665546 255.519449 
L 360.866507 250.186273 
L 361.067467 255.582155 
L 361.268427 250.194634 
L 361.469388 255.160977 
L 361.670348 250.189408 
L 361.871309 255.704433 
L 362.072269 250.21031 
L 362.273229 255.149481 
L 362.47419 250.200904 
L 362.67515 255.143211 
L 362.87611 250.207175 
L 363.077071 255.137985 
L 363.278031 250.2124 
L 363.478992 255.131714 
L 363.679952 250.218671 
L 363.880912 255.126489 
L 364.081873 250.223897 
L 364.282833 255.120218 
L 364.483794 250.230167 
L 364.684754 255.114993 
L 364.885714 250.235393 
L 365.086675 255.108722 
L 365.287635 250.241663 
L 365.488595 255.102451 
L 365.689556 250.246889 
L 365.890516 255.097226 
L 366.091477 250.25316 
L 366.292437 255.364773 
L 366.493397 250.270926 
L 366.694358 255.425389 
L 366.895318 250.279287 
L 367.096279 255.079459 
L 367.297239 250.269881 
L 367.498199 255.074234 
L 367.69916 250.276152 
L 367.90012 255.067963 
L 368.10108 250.282423 
L 368.302041 255.062737 
L 368.503001 250.287648 
L 368.703962 255.056467 
L 368.904922 250.293919 
L 369.105882 256.049318 
L 369.306843 250.347219 
L 369.507803 255.044971 
L 369.708764 250.305415 
L 369.909724 255.039745 
L 370.110684 250.31064 
L 370.311645 255.033474 
L 370.512605 250.316911 
L 370.713565 255.028249 
L 370.914526 250.322137 
L 371.115486 255.021978 
L 371.316447 250.328407 
L 371.517407 255.151571 
L 371.718367 250.343039 
L 371.919328 255.010482 
L 372.120288 250.339903 
L 372.321248 255.270714 
L 372.522209 250.362896 
L 372.723169 254.998986 
L 372.92413 250.3514 
L 373.12509 254.992715 
L 373.32605 250.356625 
L 373.527011 254.98749 
L 373.727971 250.362896 
L 373.928932 255.438976 
L 374.129892 250.395294 
L 374.330852 255.567524 
L 374.531813 250.414106 
L 374.732773 254.969723 
L 374.933733 250.380663 
L 375.134694 254.964497 
L 375.335654 250.385888 
L 375.536615 254.958227 
L 375.737575 250.392159 
L 375.938535 254.953001 
L 376.139496 250.397384 
L 376.340456 254.946731 
L 376.541417 250.403655 
L 376.742377 255.916589 
L 376.943337 250.476812 
L 377.144298 255.844477 
L 377.345258 250.478902 
L 377.546218 254.928964 
L 377.747179 250.420377 
L 377.948139 255.119173 
L 378.1491 250.443369 
L 378.35006 254.917468 
L 378.55102 250.431873 
L 378.751981 255.559163 
L 378.952941 250.486218 
L 379.153902 254.905972 
L 379.354862 250.443369 
L 379.555822 255.352232 
L 379.756783 250.488308 
L 379.957743 254.894475 
L 380.158703 250.45591 
L 380.359664 255.468239 
L 380.560624 250.512346 
L 380.761585 255.204872 
L 380.962545 250.491444 
L 381.163505 254.877754 
L 381.364466 250.472632 
L 381.565426 254.871483 
L 381.766387 250.478902 
L 381.967347 254.866258 
L 382.168307 250.484128 
L 382.369268 254.859987 
L 382.570228 250.490399 
L 382.771188 254.854761 
L 382.972149 250.49876 
L 383.173109 254.848491 
L 383.37407 250.501895 
L 383.57503 254.84222 
L 383.77599 250.50712 
L 383.976951 254.836995 
L 384.177911 250.513391 
L 384.378872 255.08364 
L 384.579832 250.546834 
L 384.780792 254.825498 
L 384.981753 250.524887 
L 385.182713 254.819228 
L 385.383673 250.530113 
L 385.584634 254.814002 
L 385.785594 250.536383 
L 385.986555 254.807732 
L 386.187515 250.542654 
L 386.388475 254.802506 
L 386.589436 250.547879 
L 386.790396 255.425389 
L 386.991357 250.622082 
L 387.192317 254.79101 
L 387.393277 250.559376 
L 387.594238 254.784739 
L 387.795198 250.565646 
L 387.996158 254.779514 
L 388.197119 250.570872 
L 388.398079 255.650087 
L 388.59904 250.676428 
L 388.8 254.768018 
L 388.8 254.768018 
" clip-path="url(#pff8f58a580)" style="fill: none; stroke: #000000; stroke-width: 1.5; stroke-linecap: square"/>
   </g>
  </g>
 </g>
 <defs>
  <clipPath id="pff8f58a580">
   <rect x="54" y="34.56" width="334.8" height="221.76"/>
  </clipPath>
 </defs>
</svg>
